<?xml version="1.0" encoding="UTF-8" standalone="no"?>
<svg
   version="1.1"
   width="60.96mm"
   height="128.5mm"
   viewBox="0 0 60.96 128.5"
   id="svg25"
   sodipodi:docname="AcidGen.svg"
   inkscape:version="1.4.3 (0d15f75, 2025-12-25)"
   xmlns:inkscape="http://www.inkscape.org/namespaces/inkscape"
   xmlns:sodipodi="http://sodipodi.sourceforge.net/DTD/sodipodi-0.dtd"
   xmlns="http://www.w3.org/2000/svg"
   xmlns:svg="http://www.w3.org/2000/svg">
  <defs
     id="defs25" />
  <sodipodi:namedview
     id="namedview25"
     pagecolor="#ffffff"
     bordercolor="#000000"
     borderopacity="0.25"
     inkscape:showpageshadow="2"
     inkscape:pageopacity="0.0"
     inkscape:pagecheckerboard="0"
     inkscape:deskcolor="#d1d1d1"
     inkscape:document-units="mm"
     inkscape:zoom="1"
     inkscape:cx="112.5"
     inkscape:cy="244.5"
     inkscape:window-width="2056"
     inkscape:window-height="1172"
     inkscape:window-x="0"
     inkscape:window-y="44"
     inkscape:window-maximized="1"
     inkscape:current-layer="svg25" />
  <!-- 12HP panel: 60.96mm x 128.5mm -->
  <!-- Background -->
  <rect
     x="0"
     y="0"
     width="60.96"
     height="128.5"
     fill="#1a1a1a"
     id="rect1" />
  <!-- Panel border -->
  <rect
     x="0.5"
     y="0.5"
     width="59.96"
     height="127.5"
     fill="none"
     stroke="#333333"
     stroke-width="1"
     id="rect2" />
  <!-- Title -->
  <path
     d="M 19.028095,8 18.846943,7.4052734 H 17.936054 L 17.754902,8 h -0.570801 l 0.881836,-2.5087891 h 0.647705 L 19.598896,8 Z M 18.720478,6.9609375 q -0.251221,-0.8083496 -0.283691,-0.9143066 -0.03076,-0.1059571 -0.04443,-0.1674805 -0.0564,0.21875 -0.322998,1.0817871 z m 2.219971,-1.0544434 q -0.299073,0 -0.463135,0.225586 -0.164063,0.2238769 -0.164063,0.6254883 0,0.8356933 0.627198,0.8356933 0.263183,0 0.637451,-0.1315918 v 0.444336 q -0.307617,0.1281738 -0.687012,0.1281738 -0.545166,0 -0.833984,-0.329834 -0.288819,-0.331543 -0.288819,-0.9501953 0,-0.3896484 0.141846,-0.6818848 0.141846,-0.2939453 0.406738,-0.4494629 0.266602,-0.1572265 0.62378,-0.1572265 0.364013,0 0.731445,0.1760254 l -0.170898,0.430664 Q 21.360859,6.0056152 21.219013,5.9560547 21.077168,5.9064941 20.940449,5.9064941 Z M 23.044209,8 H 21.907734 V 7.6992187 L 22.211933,7.559082 V 5.9423828 L 21.907734,5.8022461 V 5.5014648 h 1.136475 v 0.3007813 l -0.3042,0.1401367 V 7.559082 l 0.3042,0.1401367 z m 2.500244,-1.2731934 q 0,0.6169434 -0.352051,0.9450684 Q 24.84206,8 24.178974,8 H 23.471455 V 5.5014648 h 0.784423 q 0.611817,0 0.950196,0.3229981 0.338379,0.322998 0.338379,0.9023437 z m -0.550293,0.013672 q 0,-0.8049316 -0.710938,-0.8049316 H 24.00124 V 7.5625 h 0.227295 q 0.765625,0 0.765625,-0.8220215 z m 2.925781,-0.1435547 h 0.991211 V 7.892334 q -0.240967,0.078613 -0.45459,0.109375 -0.211914,0.032471 -0.434082,0.032471 -0.565674,0 -0.864746,-0.331543 -0.297363,-0.3332519 -0.297363,-0.9553222 0,-0.6049805 0.345214,-0.9433594 0.346924,-0.3383789 0.96045,-0.3383789 0.384521,0 0.741699,0.1538086 l -0.176025,0.4238281 q -0.273438,-0.1367188 -0.569092,-0.1367188 -0.343506,0 -0.550293,0.2307129 -0.206787,0.2307129 -0.206787,0.6203614 0,0.4067382 0.165771,0.6220703 0.167481,0.213623 0.485352,0.213623 0.165771,0 0.33667,-0.03418 V 7.0378418 H 27.919941 Z M 30.944843,8 H 29.505878 V 5.5014648 h 1.438965 v 0.4340821 h -0.909179 v 0.548584 h 0.845947 v 0.434082 H 30.035664 V 7.5625 h 0.909179 z m 2.737793,0 h -0.67334 L 31.922382,6.1098633 h -0.01538 q 0.03247,0.5007324 0.03247,0.7143554 V 8 H 31.466084 V 5.5014648 h 0.668212 l 1.085205,1.8713379 h 0.01196 Q 33.20583,6.8857422 33.20583,6.684082 V 5.5014648 h 0.476806 z m 2.595948,0 -0.601563,-1.9602051 h -0.01538 q 0.03247,0.5981446 0.03247,0.7980957 V 8 H 35.220722 V 5.5014648 h 0.721192 l 0.591308,1.9106446 h 0.01025 l 0.627197,-1.9106446 h 0.721192 V 8 H 37.397968 V 6.8173828 q 0,-0.08374 0.0017,-0.1931152 0.0034,-0.109375 0.02393,-0.5810547 h -0.01538 L 36.763935,8 Z m 3.177001,0 H 38.319111 V 7.6992187 L 38.62331,7.559082 V 5.9423828 L 38.319111,5.8022461 V 5.5014648 h 1.136474 V 5.8022461 L 39.151386,5.9423828 V 7.559082 l 0.304199,0.1401367 z m 2.643799,0 h -0.67334 L 40.33913,6.1098633 h -0.01538 q 0.03247,0.5007324 0.03247,0.7143554 V 8 H 39.882832 V 5.5014648 h 0.668212 l 1.085206,1.8713379 h 0.01196 Q 41.622578,6.8857422 41.622578,6.684082 V 5.5014648 h 0.476806 z m 1.563721,0 H 42.52663 V 7.6992187 L 42.83083,7.559082 V 5.9423828 L 42.52663,5.8022461 V 5.5014648 h 1.136475 V 5.8022461 L 43.358906,5.9423828 V 7.559082 l 0.304199,0.1401367 z"
     id="text2"
     style="font-weight:bold;font-size:3.5px;text-anchor:middle;fill:#ddff55"
     aria-label="ACID GEN MINI" />
  <!-- Row 1 labels (main knobs) -->
  <path
     d="m 9.2822266,12.272461 q 0,0.353516 -0.1933594,0.541016 Q 8.8964844,13 8.5361328,13 H 8.1386719 V 11.572266 H 8.578125 q 0.3330078,0 0.5185547,0.183593 0.1855469,0.182618 0.1855469,0.516602 z m -0.1894532,0.0059 q 0,-0.272461 -0.1347656,-0.412109 -0.133789,-0.140625 -0.4052734,-0.140625 h -0.234375 v 1.120117 h 0.1943359 q 0.5800781,0 0.5800781,-0.567383 z M 10.396484,13 H 9.5986328 v -1.427734 h 0.7978512 v 0.158203 H 9.7783203 v 0.445312 h 0.5820317 v 0.15625 H 9.7783203 v 0.509766 h 0.6181637 z m 1.446289,0 h -0.20996 l -0.764649,-1.185547 h -0.0078 l 0.0049,0.0791 q 0.01172,0.177734 0.01172,0.308593 V 13 h -0.166015 v -1.427734 h 0.208007 l 0.04395,0.06934 0.46875,0.724609 0.249023,0.387695 h 0.0078 q -0.002,-0.02344 -0.0078,-0.166992 -0.0059,-0.144531 -0.0059,-0.208984 v -0.805664 h 0.167968 z m 1.197266,-0.381836 q 0,0.186524 -0.134766,0.293945 -0.134765,0.107422 -0.375,0.107422 -0.253906,0 -0.392578,-0.06738 v -0.171875 q 0.09082,0.03906 0.198243,0.06152 0.108398,0.02246 0.202148,0.02246 0.160156,0 0.241211,-0.06152 0.08106,-0.06152 0.08106,-0.168945 0,-0.07129 -0.0293,-0.117187 -0.0293,-0.0459 -0.09863,-0.08594 -0.06836,-0.04004 -0.208008,-0.09082 -0.198242,-0.07227 -0.283203,-0.169922 -0.08496,-0.09863 -0.08496,-0.253906 0,-0.166993 0.125,-0.265625 0.125977,-0.09863 0.331055,-0.09863 0.213867,0 0.393554,0.08008 l -0.05566,0.154297 q -0.183593,-0.07617 -0.341797,-0.07617 -0.126953,0 -0.199218,0.05469 -0.07129,0.05469 -0.07129,0.153321 0,0.07031 0.02734,0.117187 0.02832,0.0459 0.08984,0.08399 0.0625,0.03809 0.195313,0.08691 0.159179,0.05859 0.237304,0.114258 0.07813,0.05469 0.115235,0.126953 0.03711,0.07129 0.03711,0.170898 z M 13.729492,13 h -0.515625 v -0.103516 l 0.167969,-0.03809 V 11.71582 l -0.167969,-0.04004 v -0.103515 h 0.515625 v 0.103515 l -0.167969,0.04004 v 1.142578 l 0.167969,0.03809 z m 0.728516,0 h -0.180664 v -1.269531 h -0.446289 v -0.158203 h 1.070312 v 0.158203 h -0.443359 z m 1.032226,-0.725586 0.372071,-0.702148 h 0.193359 l -0.475586,0.874023 V 13 h -0.180664 v -0.545898 l -0.475586,-0.881836 h 0.196289 z"
     id="text3"
     style="font-size:2px;text-anchor:middle;fill:#6f6f6f"
     aria-label="DENSITY" />
  <path
     d="m 27.782734,12.618164 q 0,0.186524 -0.134766,0.293945 -0.134765,0.107422 -0.375,0.107422 -0.253906,0 -0.392578,-0.06738 v -0.171875 q 0.09082,0.03906 0.198242,0.06152 0.108399,0.02246 0.202149,0.02246 0.160156,0 0.241211,-0.06152 0.08105,-0.06152 0.08105,-0.168945 0,-0.07129 -0.0293,-0.117187 -0.0293,-0.0459 -0.09863,-0.08594 -0.06836,-0.04004 -0.208008,-0.09082 -0.198242,-0.07227 -0.283203,-0.169922 -0.08496,-0.09863 -0.08496,-0.253906 0,-0.166993 0.125,-0.265625 0.125976,-0.09863 0.331055,-0.09863 0.213867,0 0.393554,0.08008 l -0.05566,0.154297 q -0.183594,-0.07617 -0.341797,-0.07617 -0.126953,0 -0.199218,0.05469 -0.07129,0.05469 -0.07129,0.153321 0,0.07031 0.02734,0.117187 0.02832,0.0459 0.08984,0.08399 0.0625,0.03809 0.195312,0.08691 0.15918,0.05859 0.237305,0.114258 0.07813,0.05469 0.115235,0.126953 0.03711,0.07129 0.03711,0.170898 z m 1.202148,-0.625976 q 0,0.21875 -0.149414,0.335937 -0.149414,0.116211 -0.420898,0.116211 H 28.250507 V 13 H 28.07082 v -1.427734 h 0.37793 q 0.536132,0 0.536132,0.419922 z m -0.734375,0.297851 h 0.143555 q 0.212891,0 0.308594,-0.06836 0.0957,-0.06934 0.0957,-0.22168 0,-0.137695 -0.08887,-0.206055 -0.08887,-0.06836 -0.277344,-0.06836 h -0.181641 z m 1.209961,-0.03223 h 0.213867 q 0.173829,0 0.253907,-0.06836 0.08008,-0.06836 0.08008,-0.203125 0,-0.134765 -0.08106,-0.196289 -0.08105,-0.0625 -0.262695,-0.0625 h -0.204102 z m 0,0.152343 V 13 h -0.179687 v -1.427734 h 0.393554 q 0.265625,0 0.392579,0.101562 0.127929,0.100586 0.127929,0.303711 0,0.28418 -0.286133,0.382813 L 30.300312,13 H 30.090351 L 29.744648,12.410156 Z M 31.322773,13 h -0.797852 v -1.427734 h 0.797852 v 0.158203 h -0.618164 v 0.445312 h 0.582031 v 0.15625 h -0.582031 v 0.509766 h 0.618164 z m 1.209961,0 -0.171875,-0.442383 H 31.794453 L 31.624531,13 H 31.44289 l 0.557617,-1.433594 h 0.16211 L 32.719257,13 Z m -0.225586,-0.601562 -0.160156,-0.432618 -0.06836,-0.213867 q -0.0293,0.117188 -0.06152,0.213867 L 31.855,12.398438 Z m 1.751953,-0.125977 q 0,0.353516 -0.193359,0.541016 Q 33.673359,13 33.313007,13 H 32.915546 V 11.572266 H 33.355 q 0.333007,0 0.518554,0.183593 0.185547,0.182618 0.185547,0.516602 z m -0.189453,0.0059 q 0,-0.272461 -0.134766,-0.412109 -0.133789,-0.140625 -0.405273,-0.140625 h -0.234375 v 1.120117 h 0.194336 q 0.580078,0 0.580078,-0.567383 z"
     id="text4"
     style="font-size:2px;text-anchor:middle;fill:#6f6f6f"
     aria-label="SPREAD" />
  <path
     d="m 45.329102,13 v -1.427734 h 0.179687 v 1.267578 h 0.624023 V 13 Z m 1.845703,0 h -0.797852 v -1.427734 h 0.797852 v 0.158203 h -0.618164 v 0.445312 h 0.582031 v 0.15625 h -0.582031 v 0.509766 h 0.618164 z m 1.446289,0 h -0.209961 l -0.764649,-1.185547 h -0.0078 l 0.0049,0.0791 q 0.01172,0.177734 0.01172,0.308593 V 13 h -0.166015 v -1.427734 h 0.208008 l 0.04395,0.06934 0.46875,0.724609 0.249023,0.387695 h 0.0078 q -0.002,-0.02344 -0.0078,-0.166992 -0.0059,-0.144531 -0.0059,-0.208984 v -0.805664 h 0.167969 z m 1.007812,-0.753906 h 0.493164 v 0.700195 q -0.113281,0.03613 -0.230468,0.05469 -0.117188,0.01855 -0.271485,0.01855 -0.326172,0 -0.504883,-0.193359 -0.178711,-0.193359 -0.178711,-0.540039 0,-0.223633 0.08887,-0.390625 0.08887,-0.166992 0.255859,-0.254883 0.167969,-0.08887 0.395508,-0.08887 0.228515,0 0.425781,0.08398 l -0.06836,0.15625 q -0.188477,-0.08203 -0.368164,-0.08203 -0.254883,0 -0.398438,0.154297 -0.143555,0.154297 -0.143555,0.421875 0,0.283203 0.137696,0.430664 0.137695,0.147461 0.40039,0.147461 0.143555,0 0.280274,-0.03418 V 12.40625 H 49.628906 Z M 50.916992,13 h -0.180664 v -1.269531 h -0.446289 v -0.158203 h 1.070313 v 0.158203 h -0.44336 z m 1.751953,0 H 52.489258 V 12.333984 H 51.756836 V 13 h -0.179688 v -1.427734 h 0.179688 v 0.603515 h 0.732422 v -0.603515 h 0.179687 z"
     id="text5"
     style="font-size:2px;text-anchor:middle;fill:#6f6f6f"
     aria-label="LENGTH" />
  <!-- Row 2 labels (small knobs) -->
  <path
     d="M 11.206543,31 11.034668,30.557617 H 10.468262 L 10.29834,31 h -0.181641 l 0.557617,-1.433594 h 0.16211 L 11.393066,31 Z m -0.225586,-0.601563 -0.160156,-0.432617 -0.06836,-0.213867 q -0.0293,0.117188 -0.06152,0.213867 l -0.162109,0.432617 z m 1.200195,-0.688476 q -0.230468,0 -0.362304,0.154297 -0.131836,0.154297 -0.131836,0.421875 0,0.276367 0.127929,0.426758 0.12793,0.149414 0.364258,0.149414 0.152344,0 0.342774,-0.05664 v 0.15625 q -0.09082,0.0332 -0.174805,0.04492 -0.08398,0.0127 -0.193359,0.0127 -0.31543,0 -0.486329,-0.191406 -0.169921,-0.192383 -0.169921,-0.543945 0,-0.220703 0.08105,-0.386719 0.08203,-0.166016 0.237305,-0.255859 0.15625,-0.08984 0.367187,-0.08984 0.226563,0 0.394532,0.08398 l -0.07227,0.152344 q -0.170898,-0.07813 -0.324219,-0.07813 z m 1.244141,0 q -0.230469,0 -0.362305,0.154297 -0.131836,0.154297 -0.131836,0.421875 0,0.276367 0.12793,0.426758 0.12793,0.149414 0.364258,0.149414 0.152344,0 0.342773,-0.05664 v 0.15625 q -0.09082,0.0332 -0.174804,0.04492 -0.08399,0.0127 -0.19336,0.0127 -0.315429,0 -0.486328,-0.191406 -0.169922,-0.192383 -0.169922,-0.543945 0,-0.220703 0.08105,-0.386719 0.08203,-0.166016 0.237305,-0.255859 0.15625,-0.08984 0.367187,-0.08984 0.226563,0 0.394531,0.08398 l -0.07227,0.152344 q -0.170899,-0.07813 -0.324219,-0.07813 z"
     id="text6"
     style="font-size:2px;text-anchor:middle;fill:#6f6f6f"
     aria-label="ACC" />
  <path
     d="m 23.201172,30.618164 q 0,0.186523 -0.134766,0.293945 -0.134765,0.107422 -0.375,0.107422 -0.253906,0 -0.392578,-0.06738 v -0.171875 q 0.09082,0.03906 0.198242,0.06152 0.108399,0.02246 0.202149,0.02246 0.160156,0 0.241211,-0.06152 0.08105,-0.06152 0.08105,-0.168945 0,-0.07129 -0.0293,-0.117187 -0.0293,-0.0459 -0.09863,-0.08594 -0.06836,-0.04004 -0.208008,-0.09082 -0.198242,-0.07227 -0.283203,-0.169922 -0.08496,-0.09863 -0.08496,-0.253906 0,-0.166993 0.125,-0.265625 0.125976,-0.09863 0.331054,-0.09863 0.213868,0 0.393555,0.08008 l -0.05566,0.154297 q -0.183594,-0.07617 -0.341797,-0.07617 -0.126953,0 -0.199219,0.05469 -0.07129,0.05469 -0.07129,0.153321 0,0.07031 0.02734,0.117187 0.02832,0.0459 0.08984,0.08398 0.0625,0.03809 0.195312,0.08691 0.15918,0.05859 0.237305,0.114257 0.07813,0.05469 0.115234,0.126954 0.03711,0.07129 0.03711,0.170898 z M 23.489258,31 v -1.427734 h 0.179687 v 1.267578 h 0.624024 V 31 Z m 2.191406,-0.727539 q 0,0.353516 -0.193359,0.541016 Q 25.294922,31 24.93457,31 h -0.397461 v -1.427734 h 0.439453 q 0.333008,0 0.518555,0.183593 0.185547,0.182618 0.185547,0.516602 z m -0.189453,0.0059 q 0,-0.272461 -0.134766,-0.412109 -0.133789,-0.140625 -0.405273,-0.140625 h -0.234375 v 1.120117 h 0.194336 q 0.580078,0 0.580078,-0.567383 z"
     id="text7"
     style="font-size:2px;text-anchor:middle;fill:#6f6f6f"
     aria-label="SLD" />
  <path
     d="m 34.648926,30.257812 h 0.213867 q 0.173828,0 0.253906,-0.06836 0.08008,-0.06836 0.08008,-0.203125 0,-0.134766 -0.08105,-0.196289 -0.08105,-0.0625 -0.262696,-0.0625 h -0.204101 z m 0,0.152344 V 31 h -0.179688 v -1.427734 h 0.393555 q 0.265625,0 0.392578,0.101562 0.12793,0.100586 0.12793,0.303711 0,0.28418 -0.286133,0.382813 L 35.48877,31 h -0.209961 l -0.345704,-0.589844 z m 2.310547,-0.125976 q 0,0.342773 -0.173828,0.539062 -0.172852,0.196289 -0.484375,0.196289 -0.31543,0 -0.488282,-0.192383 -0.171875,-0.193359 -0.171875,-0.544921 0,-0.348633 0.170899,-0.54004 0.171875,-0.192382 0.491211,-0.192382 0.310547,0 0.483398,0.195312 0.172852,0.194336 0.172852,0.539063 z m -1.128907,0 q 0,0.283203 0.120118,0.43164 0.120117,0.148438 0.350586,0.148438 0.229492,0 0.348632,-0.146485 0.119141,-0.146484 0.119141,-0.433593 0,-0.286133 -0.118164,-0.430664 -0.118164,-0.145508 -0.347656,-0.145508 -0.232422,0 -0.352539,0.147461 -0.120118,0.146484 -0.120118,0.428711 z m 2.69043,0 q 0,0.342773 -0.173828,0.539062 -0.172852,0.196289 -0.484375,0.196289 -0.31543,0 -0.488281,-0.192383 -0.171875,-0.193359 -0.171875,-0.544921 0,-0.348633 0.170898,-0.54004 0.171875,-0.192382 0.491211,-0.192382 0.310547,0 0.483399,0.195312 0.172851,0.194336 0.172851,0.539063 z m -1.128906,0 q 0,0.283203 0.120117,0.43164 0.120117,0.148438 0.350586,0.148438 0.229492,0 0.348633,-0.146485 0.11914,-0.146484 0.11914,-0.433593 0,-0.286133 -0.118164,-0.430664 -0.118164,-0.145508 -0.347656,-0.145508 -0.232422,0 -0.352539,0.147461 -0.120117,0.146484 -0.120117,0.428711 z M 39.259277,31 h -0.180664 v -1.269531 h -0.446289 v -0.158203 h 1.070313 v 0.158203 h -0.44336 z"
     id="text8"
     style="font-size:2px;text-anchor:middle;fill:#6f6f6f"
     aria-label="ROOT" />
  <path
     d="m 47.104004,30.618164 q 0,0.186523 -0.134766,0.293945 -0.134765,0.107422 -0.375,0.107422 -0.253906,0 -0.392578,-0.06738 v -0.171875 q 0.09082,0.03906 0.198242,0.06152 0.108399,0.02246 0.202149,0.02246 0.160156,0 0.241211,-0.06152 0.08105,-0.06152 0.08105,-0.168945 0,-0.07129 -0.0293,-0.117187 -0.0293,-0.0459 -0.09863,-0.08594 -0.06836,-0.04004 -0.208008,-0.09082 -0.198242,-0.07227 -0.283203,-0.169922 -0.08496,-0.09863 -0.08496,-0.253906 0,-0.166993 0.125,-0.265625 0.125976,-0.09863 0.331055,-0.09863 0.213867,0 0.393554,0.08008 l -0.05566,0.154297 q -0.183594,-0.07617 -0.341797,-0.07617 -0.126953,0 -0.199218,0.05469 -0.07129,0.05469 -0.07129,0.153321 0,0.07031 0.02734,0.117187 0.02832,0.0459 0.08984,0.08398 0.0625,0.03809 0.195312,0.08691 0.15918,0.05859 0.237305,0.114257 0.07813,0.05469 0.115235,0.126954 0.03711,0.07129 0.03711,0.170898 z m 0.899414,-0.908203 q -0.230469,0 -0.362305,0.154297 -0.131836,0.154297 -0.131836,0.421875 0,0.276367 0.12793,0.426758 0.12793,0.149414 0.364258,0.149414 0.152344,0 0.342773,-0.05664 v 0.15625 q -0.09082,0.0332 -0.174804,0.04492 -0.08399,0.0127 -0.19336,0.0127 -0.315429,0 -0.486328,-0.191406 -0.169922,-0.192383 -0.169922,-0.543945 0,-0.220703 0.08106,-0.386719 0.08203,-0.166016 0.237305,-0.255859 0.15625,-0.08984 0.367187,-0.08984 0.226563,0 0.394531,0.08398 l -0.07226,0.152344 q -0.170899,-0.07813 -0.324219,-0.07813 z M 49.55127,31 49.379395,30.557617 H 48.812988 L 48.643066,31 h -0.18164 l 0.557617,-1.433594 h 0.162109 L 49.737793,31 Z m -0.225586,-0.601563 -0.160157,-0.432617 -0.06836,-0.213867 q -0.0293,0.117188 -0.06152,0.213867 l -0.16211,0.432617 z M 49.934082,31 v -1.427734 h 0.179688 v 1.267578 h 0.624023 V 31 Z m 1.845703,0 h -0.797851 v -1.427734 h 0.797851 v 0.158203 h -0.618164 v 0.445312 h 0.582031 v 0.15625 h -0.582031 v 0.509766 h 0.618164 z"
     id="text9"
     style="font-size:2px;text-anchor:middle;fill:#6f6f6f"
     aria-label="SCALE" />
  <!-- Octave section -->
  <path
     d="m 7.7820313,77.539453 v -0.147656 h 0.4359374 v 0.147656 z m 0.3102539,-0.65918 z"
     id="text10"
     style="font-size:1.8px;text-anchor:middle;fill:#6f6f6f"
     aria-label="-" />
  <path
     d="m 19.934082,77.48584 h -0.340137 v -0.131836 h 0.340137 v -0.341016 h 0.131836 v 0.341016 h 0.340137 v 0.131836 h -0.340137 v 0.339258 h -0.131836 z m -0.03164,-0.605567 z"
     id="text11"
     style="font-size:1.8px;text-anchor:middle;fill:#6f6f6f"
     aria-label="+" />
  <path
     d="m 13.524512,86.355762 q 0,0.308496 -0.156446,0.485156 -0.155566,0.17666 -0.435937,0.17666 -0.283887,0 -0.439453,-0.173144 -0.154688,-0.174024 -0.154688,-0.49043 0,-0.31377 0.153809,-0.486035 0.154687,-0.173145 0.44209,-0.173145 0.279492,0 0.435058,0.175781 0.155567,0.174903 0.155567,0.485157 z m -1.016016,0 q 0,0.254883 0.108106,0.388476 0.108105,0.133594 0.315527,0.133594 0.206543,0 0.313769,-0.131836 0.107227,-0.131836 0.107227,-0.390234 0,-0.25752 -0.106348,-0.387598 -0.106347,-0.130957 -0.31289,-0.130957 -0.20918,0 -0.317285,0.132715 -0.108106,0.131836 -0.108106,0.38584 z m 1.850098,-0.516797 q -0.207422,0 -0.326074,0.138867 -0.118653,0.138867 -0.118653,0.379688 0,0.24873 0.115137,0.384082 0.115137,0.134472 0.327832,0.134472 0.137109,0 0.308496,-0.05098 v 0.140625 q -0.08174,0.02988 -0.157324,0.04043 -0.07559,0.01143 -0.174024,0.01143 -0.283886,0 -0.437695,-0.172265 -0.15293,-0.173145 -0.15293,-0.489551 0,-0.198633 0.07295,-0.348047 0.07383,-0.149414 0.213574,-0.230274 0.140625,-0.08086 0.330469,-0.08086 0.203906,0 0.355078,0.07559 l -0.06504,0.137109 q -0.153809,-0.07031 -0.291797,-0.07031 z M 15.352637,87 h -0.162598 v -1.142578 h -0.40166 v -0.142383 h 0.963281 v 0.142383 h -0.399023 z"
     id="text12"
     style="font-size:1.8px;text-anchor:middle;fill:#6f6f6f"
     aria-label="OCT" />
  <!-- Octave LED labels -->
  <path
     d="m 29.405273,86.616211 v -0.123047 h 0.363282 v 0.123047 z m 0.258545,-0.549316 z M 30.580078,87 h -0.667969 v -0.114258 l 0.256348,-0.279053 q 0.05493,-0.05933 0.09814,-0.108398 0.04321,-0.04907 0.07324,-0.09595 0.03076,-0.04687 0.04687,-0.09375 0.01611,-0.04761 0.01611,-0.103272 0,-0.04321 -0.01245,-0.07617 -0.01245,-0.03296 -0.03589,-0.05566 -0.02271,-0.02344 -0.0542,-0.03516 -0.03149,-0.01172 -0.07031,-0.01172 -0.06958,0 -0.125976,0.02857 -0.05566,0.02783 -0.106201,0.07178 l -0.07471,-0.08716 q 0.0293,-0.02637 0.06299,-0.04907 0.03369,-0.02344 0.07251,-0.04028 0.03882,-0.01685 0.08203,-0.02637 0.04321,-0.01025 0.09082,-0.01025 0.07031,0 0.126709,0.01978 0.05713,0.01977 0.09668,0.05713 0.03955,0.03662 0.06079,0.09009 0.02197,0.05273 0.02197,0.119384 0,0.06226 -0.01978,0.118653 -0.01904,0.0564 -0.05347,0.111328 -0.03369,0.0542 -0.0813,0.109131 -0.04687,0.05493 -0.101807,0.114257 l -0.205811,0.218995 v 0.0059 h 0.504639 z"
     id="text13"
     style="font-size:1.5px;text-anchor:middle;fill:#4f4f4f"
     aria-label="-2" />
  <path
     d="m 34.905273,86.616211 v -0.123047 h 0.363282 v 0.123047 z m 0.258545,-0.549316 z M 35.862549,87 h -0.128906 v -0.668701 q 0,-0.03149 0,-0.06738 7.32e-4,-0.03589 0.0015,-0.07104 0.0015,-0.03589 0.0022,-0.06811 0.0015,-0.03296 0.0022,-0.05786 -0.01245,0.01318 -0.02197,0.02271 -0.0095,0.0095 -0.01977,0.01831 -0.0095,0.0088 -0.02051,0.01904 -0.01099,0.0095 -0.02637,0.02271 l -0.108399,0.08862 -0.07031,-0.09009 0.280518,-0.218994 h 0.109863 z"
     id="text14"
     style="font-size:1.5px;text-anchor:middle;fill:#4f4f4f"
     aria-label="-1" />
  <path
     d="m 41.342773,86.463135 q 0,0.129638 -0.01904,0.232177 -0.01831,0.10254 -0.06006,0.173584 -0.04102,0.07104 -0.106201,0.108399 -0.06519,0.03735 -0.158203,0.03735 -0.08643,0 -0.150879,-0.03735 -0.06372,-0.03735 -0.106202,-0.108399 -0.04175,-0.07104 -0.06299,-0.173584 -0.02051,-0.102539 -0.02051,-0.232177 0,-0.129639 0.01831,-0.232178 0.01904,-0.102539 0.05933,-0.172852 0.04102,-0.07104 0.105469,-0.108398 0.06518,-0.03735 0.157471,-0.03735 0.08716,0 0.151611,0.03735 0.06445,0.03662 0.106933,0.107666 0.04248,0.07031 0.06372,0.172852 0.02124,0.102539 0.02124,0.23291 z m -0.548584,0 q 0,0.109863 0.01099,0.191894 0.01099,0.08203 0.03516,0.136963 0.02417,0.0542 0.06299,0.08203 0.03955,0.0271 0.09595,0.0271 0.0564,0 0.09595,-0.0271 0.03955,-0.0271 0.06445,-0.0813 0.02563,-0.0542 0.03662,-0.136231 0.01172,-0.08276 0.01172,-0.193359 0,-0.109864 -0.01172,-0.191895 -0.01099,-0.08203 -0.03662,-0.13623 -0.0249,-0.0542 -0.06445,-0.0813 -0.03955,-0.0271 -0.09595,-0.0271 -0.0564,0 -0.09595,0.0271 -0.03882,0.0271 -0.06299,0.0813 -0.02417,0.0542 -0.03516,0.13623 -0.01099,0.08203 -0.01099,0.191895 z"
     id="text15"
     style="font-size:1.5px;text-anchor:middle;fill:#4f4f4f"
     aria-label="0" />
  <path
     d="M 46.031982,86.571533 H 45.748535 V 86.46167 h 0.283447 v -0.28418 h 0.109864 v 0.28418 h 0.283447 v 0.109863 h -0.283447 v 0.282715 h -0.109864 z m -0.02637,-0.504638 z M 47.020752,87 h -0.128906 v -0.668701 q 0,-0.03149 0,-0.06738 7.32e-4,-0.03589 0.0015,-0.07104 0.0015,-0.03589 0.0022,-0.06811 0.0015,-0.03296 0.0022,-0.05786 -0.01245,0.01318 -0.02197,0.02271 -0.0095,0.0095 -0.01978,0.01831 -0.0095,0.0088 -0.02051,0.01904 -0.01099,0.0095 -0.02637,0.02271 l -0.108398,0.08862 -0.07031,-0.09009 0.280518,-0.218994 h 0.109863 z"
     id="text16"
     style="font-size:1.5px;text-anchor:middle;fill:#4f4f4f"
     aria-label="+1" />
  <path
     d="M 51.531982,86.571533 H 51.248535 V 86.46167 h 0.283447 v -0.28418 h 0.109864 v 0.28418 h 0.283447 v 0.109863 h -0.283447 v 0.282715 h -0.109864 z m -0.02637,-0.504638 z M 52.738281,87 h -0.667969 v -0.114258 l 0.256348,-0.279053 q 0.05493,-0.05933 0.09815,-0.108398 0.04321,-0.04907 0.07324,-0.09595 0.03076,-0.04687 0.04687,-0.09375 0.01611,-0.04761 0.01611,-0.103272 0,-0.04321 -0.01245,-0.07617 -0.01245,-0.03296 -0.03589,-0.05566 -0.02271,-0.02344 -0.0542,-0.03516 -0.03149,-0.01172 -0.07031,-0.01172 -0.06958,0 -0.125977,0.02857 -0.05566,0.02783 -0.106201,0.07178 l -0.07471,-0.08716 q 0.0293,-0.02637 0.06299,-0.04907 0.03369,-0.02344 0.07251,-0.04028 0.03882,-0.01685 0.08203,-0.02637 0.04321,-0.01025 0.09082,-0.01025 0.07031,0 0.126709,0.01978 0.05713,0.01977 0.09668,0.05713 0.03955,0.03662 0.06079,0.09009 0.02197,0.05273 0.02197,0.119384 0,0.06226 -0.01978,0.118653 -0.01904,0.0564 -0.05347,0.111328 -0.03369,0.0542 -0.0813,0.109131 -0.04687,0.05493 -0.101807,0.114257 l -0.20581,0.218995 v 0.0059 h 0.504638 z"
     id="text17"
     style="font-size:1.5px;text-anchor:middle;fill:#4f4f4f"
     aria-label="+2" />
  <!-- Divider line above I/O -->
  <path
     id="line17"
     style="stroke:#333333;stroke-width:0.5"
     d="M 4,90 H 56.959999" />
  <!-- Input labels (above jacks at y=100) -->
  <path
     d="m 9.0307617,92.709961 q -0.2304687,0 -0.3623047,0.154297 -0.1318359,0.154297 -0.1318359,0.421875 0,0.276367 0.1279297,0.426758 0.1279297,0.149414 0.3642578,0.149414 0.1523437,0 0.3427734,-0.05664 v 0.15625 q -0.09082,0.0332 -0.1748047,0.04492 -0.083984,0.01269 -0.1933593,0.01269 -0.3154297,0 -0.4863282,-0.191406 Q 8.347168,93.635742 8.347168,93.28418 q 0,-0.220703 0.081055,-0.386719 0.082031,-0.166016 0.2373046,-0.255859 0.15625,-0.08984 0.3671875,-0.08984 0.2265625,0 0.3945313,0.08398 l -0.072266,0.152344 Q 9.184082,92.709961 9.0307617,92.709961 Z M 9.6831055,94 V 92.572266 H 9.862793 v 1.267578 h 0.624023 V 94 Z m 2.0917965,0 h -0.211914 l -0.506836,-0.681641 -0.145507,0.12793 V 94 h -0.179688 v -1.427734 h 0.179688 v 0.704101 l 0.123046,-0.135742 0.508789,-0.568359 h 0.209961 l -0.565429,0.62207 z"
     id="text18"
     style="font-size:2px;text-anchor:middle;fill:#6f6f6f"
     aria-label="CLK" />
  <path
     d="m 22.646973,93.257812 h 0.213867 q 0.173828,0 0.253906,-0.06836 0.08008,-0.06836 0.08008,-0.203125 0,-0.134766 -0.08105,-0.196289 -0.08105,-0.0625 -0.262696,-0.0625 h -0.204101 z m 0,0.152344 V 94 h -0.179688 v -1.427734 h 0.393555 q 0.265625,0 0.392578,0.101562 0.12793,0.100586 0.12793,0.303711 0,0.28418 -0.286133,0.382813 L 23.486816,94 h -0.209961 l -0.345703,-0.589844 z m 1.874023,0.208008 q 0,0.186523 -0.134766,0.293945 -0.134765,0.107422 -0.375,0.107422 -0.253906,0 -0.392578,-0.06738 v -0.171875 q 0.09082,0.03906 0.198243,0.06152 0.108398,0.02246 0.202148,0.02246 0.160156,0 0.241211,-0.06152 0.08105,-0.06152 0.08105,-0.168945 0,-0.07129 -0.0293,-0.117187 -0.0293,-0.0459 -0.09863,-0.08594 -0.06836,-0.04004 -0.208008,-0.09082 -0.198242,-0.07227 -0.283203,-0.169922 -0.08496,-0.09863 -0.08496,-0.253906 0,-0.166993 0.125,-0.265625 0.125977,-0.09863 0.331055,-0.09863 0.213867,0 0.393554,0.08008 l -0.05566,0.154297 q -0.183593,-0.07617 -0.341797,-0.07617 -0.126953,0 -0.199218,0.05469 -0.07129,0.05469 -0.07129,0.153321 0,0.07031 0.02734,0.117187 0.02832,0.0459 0.08984,0.08398 0.0625,0.03809 0.195313,0.08691 0.159179,0.05859 0.237304,0.114257 0.07813,0.05469 0.115235,0.126954 0.03711,0.07129 0.03711,0.170898 z M 25.26123,94 h -0.180664 v -1.269531 h -0.446289 v -0.158203 h 1.070313 v 0.158203 h -0.44336 z"
     id="text19"
     style="font-size:2px;text-anchor:middle;fill:#6f6f6f"
     aria-label="RST" />
  <path
     d="m 36.770508,93.246094 h 0.493164 v 0.700195 q -0.113281,0.03613 -0.230469,0.05469 -0.117187,0.01855 -0.271484,0.01855 -0.326172,0 -0.504883,-0.193359 -0.178711,-0.19336 -0.178711,-0.540039 0,-0.223633 0.08887,-0.390625 0.08887,-0.166992 0.25586,-0.254883 0.167968,-0.08887 0.395507,-0.08887 0.228516,0 0.425782,0.08398 l -0.06836,0.15625 q -0.188476,-0.08203 -0.368164,-0.08203 -0.254883,0 -0.398437,0.154297 -0.143555,0.154297 -0.143555,0.421875 0,0.283203 0.137695,0.430664 0.137696,0.147461 0.400391,0.147461 0.143555,0 0.280273,-0.03418 V 93.40625 H 36.770508 Z M 38.404297,94 h -0.797852 v -1.427734 h 0.797852 v 0.158203 h -0.618164 v 0.445312 h 0.582031 v 0.15625 h -0.582031 v 0.509766 h 0.618164 z m 1.446289,0 h -0.209961 l -0.764648,-1.185547 h -0.0078 l 0.0049,0.0791 q 0.01172,0.177734 0.01172,0.308593 V 94 H 38.71875 v -1.427734 h 0.208008 l 0.04395,0.06934 0.46875,0.724609 0.249024,0.387695 h 0.0078 q -0.002,-0.02344 -0.0078,-0.166992 -0.0059,-0.144531 -0.0059,-0.208984 v -0.805664 h 0.167969 z"
     id="text20"
     style="font-size:2px;text-anchor:middle;fill:#6f6f6f"
     aria-label="GEN" />
  <!-- Output labels (above jacks at y=117) -->
  <path
     d="m 7.0019531,109.57227 h 0.1884766 l 0.321289,0.91601 q 0.061523,0.17383 0.089844,0.31152 0.024414,-0.12304 0.09082,-0.31542 l 0.319336,-0.91211 H 8.2021484 L 7.6923828,111 H 7.5117187 Z m 1.9746094,-0.23731 -0.5244141,1.99609 H 8.2861328 L 8.8125,109.33496 Z m -0.3320312,0.4209 z m -0.00488,-0.54883 z m 0.030273,2.32813 z m 1.8310551,-1.25098 q 0,0.34277 -0.173829,0.53906 -0.172851,0.19629 -0.4843746,0.19629 -0.3154296,0 -0.4882812,-0.19238 -0.171875,-0.19336 -0.171875,-0.54492 0,-0.34864 0.1708984,-0.54004 0.171875,-0.19239 0.491211,-0.19239 0.3105464,0 0.4833984,0.19532 0.172852,0.19433 0.172852,0.53906 z m -1.1289067,0 q 0,0.2832 0.1201172,0.43164 0.1201172,0.14844 0.3505859,0.14844 0.2294926,0 0.3486326,-0.14649 0.119141,-0.14648 0.119141,-0.43359 0,-0.28613 -0.118164,-0.43066 -0.118164,-0.14551 -0.3476564,-0.14551 -0.2324219,0 -0.3525391,0.14746 -0.1201172,0.14648 -0.1201172,0.42871 z m 2.0556637,-0.57422 q -0.230468,0 -0.362304,0.1543 -0.131836,0.15429 -0.131836,0.42187 0,0.27637 0.127929,0.42676 0.12793,0.14941 0.364258,0.14941 0.152344,0 0.342774,-0.0566 v 0.15625 q -0.09082,0.0332 -0.174805,0.0449 -0.08398,0.0127 -0.193359,0.0127 -0.31543,0 -0.486328,-0.1914 -0.169922,-0.19239 -0.169922,-0.54395 0,-0.2207 0.08105,-0.38672 0.08203,-0.16601 0.237305,-0.25586 0.15625,-0.0898 0.367188,-0.0898 0.226562,0 0.394531,0.084 l -0.07227,0.15235 q -0.170898,-0.0781 -0.324219,-0.0781 z M 12.532227,111 h -0.180664 v -1.26953 h -0.44629 v -0.1582 h 1.070313 v 0.1582 h -0.443359 z"
     id="text21"
     style="font-size:2px;text-anchor:middle;fill:#6f6f6f"
     aria-label="V/OCT" />
  <path
     d="m 22.369141,110.24609 h 0.493164 v 0.7002 q -0.113282,0.0361 -0.230469,0.0547 -0.117188,0.0186 -0.271484,0.0186 -0.326172,0 -0.504883,-0.19336 -0.178711,-0.19336 -0.178711,-0.54004 0,-0.22363 0.08887,-0.39062 0.08887,-0.16699 0.255859,-0.25488 0.167969,-0.0889 0.395508,-0.0889 0.228516,0 0.425781,0.084 l -0.06836,0.15625 q -0.188477,-0.082 -0.368164,-0.082 -0.254883,0 -0.398438,0.1543 -0.143554,0.15429 -0.143554,0.42187 0,0.28321 0.137695,0.43067 0.137695,0.14746 0.400391,0.14746 0.143554,0 0.280273,-0.0342 v -0.42383 H 22.369141 Z M 24.100586,111 23.928711,110.55762 H 23.362305 L 23.192383,111 h -0.181641 l 0.557617,-1.43359 h 0.16211 L 24.287109,111 Z m -0.225586,-0.60156 -0.160156,-0.43262 -0.06836,-0.21387 q -0.0293,0.11719 -0.06152,0.21387 l -0.162109,0.43262 z M 24.867187,111 h -0.180664 v -1.26953 h -0.446289 v -0.1582 h 1.070313 v 0.1582 h -0.44336 z m 1.458008,0 h -0.797851 v -1.42773 h 0.797851 v 0.1582 h -0.618164 v 0.44531 h 0.582031 v 0.15625 h -0.582031 v 0.50977 h 0.618164 z"
     id="text22"
     style="font-size:2px;text-anchor:middle;fill:#6f6f6f"
     aria-label="GATE" />
  <path
     d="m 37.206543,111 -0.171875,-0.44238 H 36.468262 L 36.29834,111 h -0.181641 l 0.557617,-1.43359 h 0.16211 L 37.393066,111 Z m -0.225586,-0.60156 -0.160156,-0.43262 -0.06836,-0.21387 q -0.0293,0.11719 -0.06152,0.21387 l -0.162109,0.43262 z m 1.200195,-0.68848 q -0.230468,0 -0.362304,0.1543 -0.131836,0.15429 -0.131836,0.42187 0,0.27637 0.127929,0.42676 0.12793,0.14941 0.364258,0.14941 0.152344,0 0.342774,-0.0566 v 0.15625 q -0.09082,0.0332 -0.174805,0.0449 -0.08398,0.0127 -0.193359,0.0127 -0.31543,0 -0.486329,-0.1914 -0.169921,-0.19239 -0.169921,-0.54395 0,-0.2207 0.08105,-0.38672 0.08203,-0.16601 0.237305,-0.25586 0.15625,-0.0898 0.367187,-0.0898 0.226563,0 0.394532,0.084 l -0.07227,0.15235 q -0.170898,-0.0781 -0.324219,-0.0781 z m 1.244141,0 q -0.230469,0 -0.362305,0.1543 -0.131836,0.15429 -0.131836,0.42187 0,0.27637 0.12793,0.42676 0.12793,0.14941 0.364258,0.14941 0.152344,0 0.342773,-0.0566 v 0.15625 q -0.09082,0.0332 -0.174804,0.0449 -0.08399,0.0127 -0.19336,0.0127 -0.315429,0 -0.486328,-0.1914 -0.169922,-0.19239 -0.169922,-0.54395 0,-0.2207 0.08106,-0.38672 0.08203,-0.16601 0.237305,-0.25586 0.15625,-0.0898 0.367187,-0.0898 0.226563,0 0.394531,0.084 l -0.07226,0.15235 q -0.170899,-0.0781 -0.324219,-0.0781 z"
     id="text23"
     style="font-size:2px;text-anchor:middle;fill:#6f6f6f"
     aria-label="ACC" />
  <path
     d="m 49.306152,110.61816 q 0,0.18653 -0.134765,0.29395 -0.134766,0.10742 -0.375,0.10742 -0.253907,0 -0.392578,-0.0674 v -0.17188 q 0.09082,0.0391 0.198242,0.0615 0.108398,0.0225 0.202148,0.0225 0.160156,0 0.241211,-0.0615 0.08106,-0.0615 0.08106,-0.16894 0,-0.0713 -0.0293,-0.11719 -0.0293,-0.0459 -0.09863,-0.0859 -0.06836,-0.04 -0.208008,-0.0908 -0.198242,-0.0723 -0.283203,-0.16992 -0.08496,-0.0986 -0.08496,-0.2539 0,-0.167 0.125,-0.26563 0.125977,-0.0986 0.331055,-0.0986 0.213867,0 0.393555,0.0801 l -0.05566,0.15429 q -0.183594,-0.0762 -0.341797,-0.0762 -0.126953,0 -0.199219,0.0547 -0.07129,0.0547 -0.07129,0.15332 0,0.0703 0.02734,0.11719 0.02832,0.0459 0.08984,0.084 0.0625,0.0381 0.195313,0.0869 0.15918,0.0586 0.237305,0.11426 0.07813,0.0547 0.115234,0.12696 0.03711,0.0713 0.03711,0.17089 z M 49.594238,111 v -1.42773 h 0.179688 v 1.26757 h 0.624023 V 111 Z m 1.449219,0 h -0.515625 v -0.10352 l 0.167969,-0.0381 v -1.14258 l -0.167969,-0.04 v -0.10351 h 0.515625 v 0.10351 l -0.167969,0.04 v 1.14258 l 0.167969,0.0381 z m 1.419922,-0.72754 q 0,0.35352 -0.193359,0.54102 Q 52.077637,111 51.717285,111 h -0.397461 v -1.42773 h 0.439453 q 0.333008,0 0.518555,0.18359 0.185547,0.18262 0.185547,0.5166 z m -0.189453,0.006 q 0,-0.27246 -0.134766,-0.41211 -0.133789,-0.14062 -0.405273,-0.14062 h -0.234375 v 1.12011 h 0.194336 q 0.580078,0 0.580078,-0.56738 z M 53.577637,111 h -0.797852 v -1.42773 h 0.797852 v 0.1582 h -0.618164 v 0.44531 h 0.582031 v 0.15625 h -0.582031 v 0.50977 h 0.618164 z"
     id="text24"
     style="font-size:2px;text-anchor:middle;fill:#6f6f6f"
     aria-label="SLIDE" />
  <!-- Brand -->
  <path
     d="m 26.249043,123.57227 h 0.188476 l 0.321289,0.91601 q 0.06152,0.17383 0.08984,0.31152 0.02441,-0.12304 0.09082,-0.31542 l 0.319336,-0.91211 h 0.19043 L 26.939472,125 h -0.180664 z m 1.526367,0.35546 v 0.69043 q 0,0.12989 0.05762,0.19336 0.05859,0.0625 0.180664,0.0625 0.165039,0 0.240234,-0.0918 0.0752,-0.0918 0.0752,-0.2959 v -0.5586 h 0.176757 V 125 h -0.144531 l -0.02539,-0.1416 h -0.0088 q -0.04785,0.0772 -0.135743,0.11914 -0.08789,0.042 -0.204101,0.042 -0.19336,0 -0.291992,-0.0928 -0.09766,-0.0928 -0.09766,-0.29688 v -0.70215 z M 29.021503,125 h -0.175781 v -1.51953 h 0.175781 z m 0.847657,0.0195 q -0.215821,0 -0.332032,-0.15527 h -0.01172 l 0.0039,0.04 q 0.0078,0.0762 0.0078,0.13574 v 0.44043 h -0.175781 v -1.55274 h 0.144531 l 0.02344,0.14649 h 0.0078 q 0.0625,-0.0879 0.144532,-0.12695 0.08203,-0.0391 0.189453,-0.0391 0.208984,0 0.324219,0.14551 0.116211,0.14453 0.116211,0.4082 0,0.2627 -0.116211,0.41016 -0.116211,0.14746 -0.326172,0.14746 z m -0.0293,-0.96387 q -0.15918,0 -0.230469,0.0898 -0.07031,0.0898 -0.07227,0.28222 v 0.0342 q 0,0.21778 0.07227,0.31543 0.07227,0.0967 0.234375,0.0967 0.134766,0 0.209961,-0.10937 0.07617,-0.10938 0.07617,-0.30469 0,-0.19629 -0.07617,-0.2998 -0.0752,-0.1045 -0.213867,-0.1045 z m 1.208008,0.96387 q -0.241211,0 -0.378907,-0.14551 -0.136718,-0.14648 -0.136718,-0.40234 0,-0.25781 0.127929,-0.41016 0.12793,-0.15332 0.345703,-0.15332 0.202149,0 0.322266,0.13086 0.120117,0.12989 0.120117,0.35254 v 0.10645 h -0.734375 q 0.0049,0.18261 0.09277,0.27734 0.08789,0.0947 0.249023,0.0947 0.08594,0 0.163086,-0.0147 0.07715,-0.0156 0.180664,-0.0596 v 0.1543 q -0.08887,0.0381 -0.166992,0.0537 -0.07813,0.0156 -0.18457,0.0156 z m -0.04395,-0.96777 q -0.125976,0 -0.199218,0.0811 -0.07324,0.0811 -0.08691,0.22559 h 0.545898 q -0.002,-0.15039 -0.06934,-0.22852 -0.06738,-0.0781 -0.19043,-0.0781 z m 1.414063,0.65234 q 0,0.15039 -0.112305,0.2334 -0.112305,0.082 -0.31543,0.082 -0.211914,0 -0.336914,-0.0674 v -0.16016 q 0.176758,0.0859 0.340821,0.0859 0.132812,0 0.193359,-0.043 0.06055,-0.043 0.06055,-0.11523 0,-0.0635 -0.05859,-0.10743 -0.05762,-0.0439 -0.206054,-0.10058 -0.151368,-0.0586 -0.212891,-0.0996 -0.06152,-0.042 -0.09082,-0.0937 -0.02832,-0.0518 -0.02832,-0.12598 0,-0.13183 0.107422,-0.208 0.107422,-0.0762 0.294922,-0.0762 0.182617,0 0.341797,0.0723 l -0.05957,0.13965 q -0.163086,-0.0684 -0.293946,-0.0684 -0.109375,0 -0.166015,0.0352 -0.05664,0.0342 -0.05664,0.0947 0,0.0586 0.04883,0.0977 0.04883,0.0381 0.227539,0.10644 0.133789,0.0498 0.197266,0.0928 0.06445,0.043 0.09473,0.0967 0.03027,0.0537 0.03027,0.1289 z M 32.782246,125 33.33205,123.73438 h -0.736328 v -0.16211 h 0.917969 v 0.1416 L 32.971699,125 Z m 1.831054,-0.81836 q 0,0.10254 -0.01074,0.20508 -0.0098,0.10156 -0.03613,0.19433 -0.02539,0.0928 -0.07031,0.17383 -0.04492,0.0801 -0.114258,0.13867 -0.06934,0.0586 -0.166016,0.0928 -0.09668,0.0332 -0.226562,0.0332 -0.01855,0 -0.04102,-9.8e-4 -0.02246,-9.7e-4 -0.04492,-0.004 -0.02246,-0.002 -0.04395,-0.005 -0.02148,-0.003 -0.03809,-0.008 v -0.15234 q 0.03418,0.0127 0.07715,0.0186 0.04297,0.006 0.08496,0.006 0.131835,0 0.216796,-0.0459 0.08496,-0.0459 0.134766,-0.12403 0.0498,-0.0791 0.07031,-0.18359 0.02148,-0.10449 0.02637,-0.22071 h -0.0127 q -0.01953,0.0352 -0.04687,0.0654 -0.02734,0.0303 -0.06445,0.0527 -0.03711,0.0225 -0.08398,0.0352 -0.04687,0.0127 -0.104492,0.0127 -0.09277,0 -0.167969,-0.0283 -0.0752,-0.0293 -0.12793,-0.085 -0.05273,-0.0557 -0.08203,-0.13574 -0.02832,-0.0811 -0.02832,-0.18457 0,-0.11133 0.03027,-0.2002 0.03125,-0.0898 0.08691,-0.15137 0.05664,-0.0625 0.136719,-0.0957 0.08105,-0.0332 0.180664,-0.0332 0.09863,0 0.183594,0.0381 0.08496,0.0381 0.147461,0.11621 0.0625,0.0781 0.09863,0.19727 0.03613,0.11816 0.03613,0.27832 z m -0.463867,-0.47949 q -0.05859,0 -0.107422,0.0195 -0.04785,0.0195 -0.08301,0.0605 -0.03516,0.041 -0.05469,0.10351 -0.01855,0.0615 -0.01855,0.14649 0,0.0684 0.01563,0.12304 0.0166,0.0537 0.04883,0.0918 0.03223,0.0381 0.08008,0.0586 0.04883,0.0205 0.113281,0.0205 0.06641,0 0.120117,-0.0225 0.05371,-0.0234 0.0918,-0.0596 0.03809,-0.0371 0.05859,-0.084 0.02148,-0.0469 0.02148,-0.0937 0,-0.0654 -0.01855,-0.12989 -0.01758,-0.0654 -0.05371,-0.11718 -0.03516,-0.0527 -0.08887,-0.085 -0.05371,-0.0322 -0.125,-0.0322 z"
     id="text25"
     style="font-size:2px;text-anchor:middle;fill:#525252"
     aria-label="Vulpes79" />
</svg>
