<?xml version="1.0" encoding="UTF-8" standalone="no"?>
<svg
   version="1.1"
   width="60.96mm"
   height="128.5mm"
   viewBox="0 0 60.96 128.5"
   id="svg25"
   sodipodi:docname="AcidGen.svg"
   inkscape:version="1.4.3 (0d15f75, 2025-12-25)"
   xmlns:inkscape="http://www.inkscape.org/namespaces/inkscape"
   xmlns:sodipodi="http://sodipodi.sourceforge.net/DTD/sodipodi-0.dtd"
   xmlns="http://www.w3.org/2000/svg"
   xmlns:svg="http://www.w3.org/2000/svg">
  <defs
     id="defs25" />
  <sodipodi:namedview
     id="namedview25"
     pagecolor="#ffffff"
     bordercolor="#000000"
     borderopacity="0.25"
     inkscape:showpageshadow="2"
     inkscape:pageopacity="0.0"
     inkscape:pagecheckerboard="0"
     inkscape:deskcolor="#d1d1d1"
     inkscape:document-units="mm"
     inkscape:zoom="2"
     inkscape:cx="150"
     inkscape:cy="295.25"
     inkscape:window-width="1041"
     inkscape:window-height="1138"
     inkscape:window-x="0"
     inkscape:window-y="44"
     inkscape:window-maximized="0"
     inkscape:current-layer="layer1-0" />
  <!-- 12HP panel: 60.96mm x 128.5mm -->
  <!-- Main panel background - light warm gray -->
  <rect
     x="0"
     y="0"
     width="60.96"
     height="128.5"
     fill="#e6e6e6"
     id="rect1" />
  <!-- Section grouping rects - subtle darker gray -->
  <rect
     x="3"
     y="10"
     width="54.96"
     height="18"
     fill="#dcdcdc"
     rx="2"
     id="section-main-knobs" />
  <rect
     x="3"
     y="28"
     width="54.96"
     height="17"
     fill="#dcdcdc"
     rx="2"
     id="section-small-knobs" />
  <rect
     x="3"
     y="44"
     width="54.96"
     height="44"
     fill="#dcdcdc"
     rx="2"
     id="section-display" />
  <!-- CV input area - dark band -->
  <rect
     x="0"
     y="90"
     width="60.96"
     height="20"
     fill="#222222"
     id="cv-bg" />
  <!-- Output area - darkest band -->
  <rect
     x="0"
     y="107.22188"
     width="60.959999"
     height="21.278126"
     fill="#1a1a1a"
     id="output-bg"
     style="stroke-width:1.07246" />
  <!-- Yellow accent divider line -->
  <line
     x1="0"
     y1="90"
     x2="60.96"
     y2="90"
     stroke="#ffff00"
     stroke-width="0.5"
     id="accent-line" />
  <!-- Title chevrons - industrial/electronic feel -->
  <polygon
     points="3,5 7,7 3,9"
     fill="#221f1f"
     id="chevron-l1" />
  <polygon
     points="6,5 10,7 6,9"
     fill="#221f1f"
     id="chevron-l2" />
  <polygon
     points="57.96,5 53.96,7 57.96,9"
     fill="#221f1f"
     id="chevron-r1" />
  <polygon
     points="54.96,5 50.96,7 54.96,9"
     fill="#221f1f"
     id="chevron-r2" />
  <!-- Title -->
  <path
     d="M 19.028095,8 18.846943,7.4052734 H 17.936054 L 17.754902,8 h -0.570801 l 0.881836,-2.5087891 h 0.647705 L 19.598896,8 Z M 18.720478,6.9609375 q -0.251221,-0.8083496 -0.283691,-0.9143066 -0.03076,-0.1059571 -0.04443,-0.1674805 -0.0564,0.21875 -0.322998,1.0817871 z m 2.219971,-1.0544434 q -0.299073,0 -0.463135,0.225586 -0.164063,0.2238769 -0.164063,0.6254883 0,0.8356933 0.627198,0.8356933 0.263183,0 0.637451,-0.1315918 v 0.444336 q -0.307617,0.1281738 -0.687012,0.1281738 -0.545166,0 -0.833984,-0.329834 -0.288819,-0.331543 -0.288819,-0.9501953 0,-0.3896484 0.141846,-0.6818848 0.141846,-0.2939453 0.406738,-0.4494629 0.266602,-0.1572265 0.62378,-0.1572265 0.364013,0 0.731445,0.1760254 l -0.170898,0.430664 Q 21.360859,6.0056152 21.219013,5.9560547 21.077168,5.9064941 20.940449,5.9064941 Z M 23.044209,8 H 21.907734 V 7.6992187 L 22.211933,7.559082 V 5.9423828 L 21.907734,5.8022461 V 5.5014648 h 1.136475 v 0.3007813 l -0.3042,0.1401367 V 7.559082 l 0.3042,0.1401367 z m 2.500244,-1.2731934 q 0,0.6169434 -0.352051,0.9450684 Q 24.84206,8 24.178974,8 H 23.471455 V 5.5014648 h 0.784423 q 0.611817,0 0.950196,0.3229981 0.338379,0.322998 0.338379,0.9023437 z m -0.550293,0.013672 q 0,-0.8049316 -0.710938,-0.8049316 H 24.00124 V 7.5625 h 0.227295 q 0.765625,0 0.765625,-0.8220215 z m 2.925781,-0.1435547 h 0.991211 V 7.892334 q -0.240967,0.078613 -0.45459,0.109375 -0.211914,0.032471 -0.434082,0.032471 -0.565674,0 -0.864746,-0.331543 -0.297363,-0.3332519 -0.297363,-0.9553222 0,-0.6049805 0.345214,-0.9433594 0.346924,-0.3383789 0.96045,-0.3383789 0.384521,0 0.741699,0.1538086 l -0.176025,0.4238281 q -0.273438,-0.1367188 -0.569092,-0.1367188 -0.343506,0 -0.550293,0.2307129 -0.206787,0.2307129 -0.206787,0.6203614 0,0.4067382 0.165771,0.6220703 0.167481,0.213623 0.485352,0.213623 0.165771,0 0.33667,-0.03418 V 7.0378418 H 27.919941 Z M 30.944843,8 H 29.505878 V 5.5014648 h 1.438965 v 0.4340821 h -0.909179 v 0.548584 h 0.845947 v 0.434082 H 30.035664 V 7.5625 h 0.909179 z m 2.737793,0 h -0.67334 L 31.922382,6.1098633 h -0.01538 q 0.03247,0.5007324 0.03247,0.7143554 V 8 H 31.466084 V 5.5014648 h 0.668212 l 1.085205,1.8713379 h 0.01196 Q 33.20583,6.8857422 33.20583,6.684082 V 5.5014648 h 0.476806 z m 2.595948,0 -0.601563,-1.9602051 h -0.01538 q 0.03247,0.5981446 0.03247,0.7980957 V 8 H 35.220722 V 5.5014648 h 0.721192 l 0.591308,1.9106446 h 0.01025 l 0.627197,-1.9106446 h 0.721192 V 8 H 37.397968 V 6.8173828 q 0,-0.08374 0.0017,-0.1931152 0.0034,-0.109375 0.02393,-0.5810547 h -0.01538 L 36.763935,8 Z m 3.177001,0 H 38.319111 V 7.6992187 L 38.62331,7.559082 V 5.9423828 L 38.319111,5.8022461 V 5.5014648 h 1.136474 V 5.8022461 L 39.151386,5.9423828 V 7.559082 l 0.304199,0.1401367 z m 2.643799,0 h -0.67334 L 40.33913,6.1098633 h -0.01538 q 0.03247,0.5007324 0.03247,0.7143554 V 8 H 39.882832 V 5.5014648 h 0.668212 l 1.085206,1.8713379 h 0.01196 Q 41.622578,6.8857422 41.622578,6.684082 V 5.5014648 h 0.476806 z m 1.563721,0 H 42.52663 V 7.6992187 L 42.83083,7.559082 V 5.9423828 L 42.52663,5.8022461 V 5.5014648 h 1.136475 V 5.8022461 L 43.358906,5.9423828 V 7.559082 l 0.304199,0.1401367 z"
     id="text2"
     style="font-weight:bold;font-size:3.5px;text-anchor:middle;fill:#1a1a1a"
     aria-label="ACID GEN MINI" />
  <!-- Knob outline circles - main knobs -->
  <circle
     cx="12"
     cy="20"
     r="4.5"
     fill="none"
     stroke="#bbbbbb"
     stroke-width="0.3"
     id="outline-density" />
  <circle
     cx="30.48"
     cy="20"
     r="4.5"
     fill="none"
     stroke="#bbbbbb"
     stroke-width="0.3"
     id="outline-spread" />
  <circle
     cx="49"
     cy="20"
     r="4.5"
     fill="none"
     stroke="#bbbbbb"
     stroke-width="0.3"
     id="outline-length" />
  <!-- Row 1 labels (main knobs) - dark on light -->
  <path
     d="m 9.2822266,12.272461 q 0,0.353516 -0.1933594,0.541016 Q 8.8964844,13 8.5361328,13 H 8.1386719 V 11.572266 H 8.578125 q 0.3330078,0 0.5185547,0.183593 0.1855469,0.182618 0.1855469,0.516602 z m -0.1894532,0.0059 q 0,-0.272461 -0.1347656,-0.412109 -0.133789,-0.140625 -0.4052734,-0.140625 h -0.234375 v 1.120117 h 0.1943359 q 0.5800781,0 0.5800781,-0.567383 z M 10.396484,13 H 9.5986328 v -1.427734 h 0.7978512 v 0.158203 H 9.7783203 v 0.445312 h 0.5820317 v 0.15625 H 9.7783203 v 0.509766 h 0.6181637 z m 1.446289,0 h -0.20996 l -0.764649,-1.185547 h -0.0078 l 0.0049,0.0791 q 0.01172,0.177734 0.01172,0.308593 V 13 h -0.166015 v -1.427734 h 0.208007 l 0.04395,0.06934 0.46875,0.724609 0.249023,0.387695 h 0.0078 q -0.002,-0.02344 -0.0078,-0.166992 -0.0059,-0.144531 -0.0059,-0.208984 v -0.805664 h 0.167968 z m 1.197266,-0.381836 q 0,0.186524 -0.134766,0.293945 -0.134765,0.107422 -0.375,0.107422 -0.253906,0 -0.392578,-0.06738 v -0.171875 q 0.09082,0.03906 0.198243,0.06152 0.108398,0.02246 0.202148,0.02246 0.160156,0 0.241211,-0.06152 0.08106,-0.06152 0.08106,-0.168945 0,-0.07129 -0.0293,-0.117187 -0.0293,-0.0459 -0.09863,-0.08594 -0.06836,-0.04004 -0.208008,-0.09082 -0.198242,-0.07227 -0.283203,-0.169922 -0.08496,-0.09863 -0.08496,-0.253906 0,-0.166993 0.125,-0.265625 0.125977,-0.09863 0.331055,-0.09863 0.213867,0 0.393554,0.08008 l -0.05566,0.154297 q -0.183593,-0.07617 -0.341797,-0.07617 -0.126953,0 -0.199218,0.05469 -0.07129,0.05469 -0.07129,0.153321 0,0.07031 0.02734,0.117187 0.02832,0.0459 0.08984,0.08399 0.0625,0.03809 0.195313,0.08691 0.159179,0.05859 0.237304,0.114258 0.07813,0.05469 0.115235,0.126953 0.03711,0.07129 0.03711,0.170898 z M 13.729492,13 h -0.515625 v -0.103516 l 0.167969,-0.03809 V 11.71582 l -0.167969,-0.04004 v -0.103515 h 0.515625 v 0.103515 l -0.167969,0.04004 v 1.142578 l 0.167969,0.03809 z m 0.728516,0 h -0.180664 v -1.269531 h -0.446289 v -0.158203 h 1.070312 v 0.158203 h -0.443359 z m 1.032226,-0.725586 0.372071,-0.702148 h 0.193359 l -0.475586,0.874023 V 13 h -0.180664 v -0.545898 l -0.475586,-0.881836 h 0.196289 z"
     id="text3"
     style="font-size:2px;text-anchor:middle;fill:#1a1a1a"
     aria-label="DENSITY" />
  <path
     d="m 27.782734,12.618164 q 0,0.186524 -0.134766,0.293945 -0.134765,0.107422 -0.375,0.107422 -0.253906,0 -0.392578,-0.06738 v -0.171875 q 0.09082,0.03906 0.198242,0.06152 0.108399,0.02246 0.202149,0.02246 0.160156,0 0.241211,-0.06152 0.08105,-0.06152 0.08105,-0.168945 0,-0.07129 -0.0293,-0.117187 -0.0293,-0.0459 -0.09863,-0.08594 -0.06836,-0.04004 -0.208008,-0.09082 -0.198242,-0.07227 -0.283203,-0.169922 -0.08496,-0.09863 -0.08496,-0.253906 0,-0.166993 0.125,-0.265625 0.125976,-0.09863 0.331055,-0.09863 0.213867,0 0.393554,0.08008 l -0.05566,0.154297 q -0.183594,-0.07617 -0.341797,-0.07617 -0.126953,0 -0.199218,0.05469 -0.07129,0.05469 -0.07129,0.153321 0,0.07031 0.02734,0.117187 0.02832,0.0459 0.08984,0.08399 0.0625,0.03809 0.195312,0.08691 0.15918,0.05859 0.237305,0.114258 0.07813,0.05469 0.115235,0.126953 0.03711,0.07129 0.03711,0.170898 z m 1.202148,-0.625976 q 0,0.21875 -0.149414,0.335937 -0.149414,0.116211 -0.420898,0.116211 H 28.250507 V 13 H 28.07082 v -1.427734 h 0.37793 q 0.536132,0 0.536132,0.419922 z m -0.734375,0.297851 h 0.143555 q 0.212891,0 0.308594,-0.06836 0.0957,-0.06934 0.0957,-0.22168 0,-0.137695 -0.08887,-0.206055 -0.08887,-0.06836 -0.277344,-0.06836 h -0.181641 z m 1.209961,-0.03223 h 0.213867 q 0.173829,0 0.253907,-0.06836 0.08008,-0.06836 0.08008,-0.203125 0,-0.134765 -0.08106,-0.196289 -0.08105,-0.0625 -0.262695,-0.0625 h -0.204102 z m 0,0.152343 V 13 h -0.179687 v -1.427734 h 0.393554 q 0.265625,0 0.392579,0.101562 0.127929,0.100586 0.127929,0.303711 0,0.28418 -0.286133,0.382813 L 30.300312,13 H 30.090351 L 29.744648,12.410156 Z M 31.322773,13 h -0.797852 v -1.427734 h 0.797852 v 0.158203 h -0.618164 v 0.445312 h 0.582031 v 0.15625 h -0.582031 v 0.509766 h 0.618164 z m 1.209961,0 -0.171875,-0.442383 H 31.794453 L 31.624531,13 H 31.44289 l 0.557617,-1.433594 h 0.16211 L 32.719257,13 Z m -0.225586,-0.601562 -0.160156,-0.432618 -0.06836,-0.213867 q -0.0293,0.117188 -0.06152,0.213867 L 31.855,12.398438 Z m 1.751953,-0.125977 q 0,0.353516 -0.193359,0.541016 Q 33.673359,13 33.313007,13 H 32.915546 V 11.572266 H 33.355 q 0.333007,0 0.518554,0.183593 0.185547,0.182618 0.185547,0.516602 z m -0.189453,0.0059 q 0,-0.272461 -0.134766,-0.412109 -0.133789,-0.140625 -0.405273,-0.140625 h -0.234375 v 1.120117 h 0.194336 q 0.580078,0 0.580078,-0.567383 z"
     id="text4"
     style="font-size:2px;text-anchor:middle;fill:#1a1a1a"
     aria-label="SPREAD" />
  <path
     d="m 45.329102,13 v -1.427734 h 0.179687 v 1.267578 h 0.624023 V 13 Z m 1.845703,0 h -0.797852 v -1.427734 h 0.797852 v 0.158203 h -0.618164 v 0.445312 h 0.582031 v 0.15625 h -0.582031 v 0.509766 h 0.618164 z m 1.446289,0 h -0.209961 l -0.764649,-1.185547 h -0.0078 l 0.0049,0.0791 q 0.01172,0.177734 0.01172,0.308593 V 13 h -0.166015 v -1.427734 h 0.208008 l 0.04395,0.06934 0.46875,0.724609 0.249023,0.387695 h 0.0078 q -0.002,-0.02344 -0.0078,-0.166992 -0.0059,-0.144531 -0.0059,-0.208984 v -0.805664 h 0.167969 z m 1.007812,-0.753906 h 0.493164 v 0.700195 q -0.113281,0.03613 -0.230468,0.05469 -0.117188,0.01855 -0.271485,0.01855 -0.326172,0 -0.504883,-0.193359 -0.178711,-0.193359 -0.178711,-0.540039 0,-0.223633 0.08887,-0.390625 0.08887,-0.166992 0.255859,-0.254883 0.167969,-0.08887 0.395508,-0.08887 0.228515,0 0.425781,0.08398 l -0.06836,0.15625 q -0.188477,-0.08203 -0.368164,-0.08203 -0.254883,0 -0.398438,0.154297 -0.143555,0.154297 -0.143555,0.421875 0,0.283203 0.137696,0.430664 0.137695,0.147461 0.40039,0.147461 0.143555,0 0.280274,-0.03418 V 12.40625 H 49.628906 Z M 50.916992,13 h -0.180664 v -1.269531 h -0.446289 v -0.158203 h 1.070313 v 0.158203 h -0.44336 z m 1.751953,0 H 52.489258 V 12.333984 H 51.756836 V 13 h -0.179688 v -1.427734 h 0.179688 v 0.603515 h 0.732422 v -0.603515 h 0.179687 z"
     id="text5"
     style="font-size:2px;text-anchor:middle;fill:#1a1a1a"
     aria-label="LENGTH" />
  <!-- Knob outline circles - small knobs -->
  <circle
     cx="12"
     cy="38"
     r="4.5"
     fill="none"
     stroke="#bbbbbb"
     stroke-width="0.3"
     id="outline-acc" />
  <circle
     cx="24"
     cy="38"
     r="4.5"
     fill="none"
     stroke="#bbbbbb"
     stroke-width="0.3"
     id="outline-sld" />
  <circle
     cx="37"
     cy="38"
     r="4.5"
     fill="none"
     stroke="#bbbbbb"
     stroke-width="0.3"
     id="outline-root" />
  <circle
     cx="49"
     cy="38"
     r="4.5"
     fill="none"
     stroke="#bbbbbb"
     stroke-width="0.3"
     id="outline-scale" />
  <!-- Row 2 labels (small knobs) - dark on light -->
  <path
     d="M 11.206543,31 11.034668,30.557617 H 10.468262 L 10.29834,31 h -0.181641 l 0.557617,-1.433594 h 0.16211 L 11.393066,31 Z m -0.225586,-0.601563 -0.160156,-0.432617 -0.06836,-0.213867 q -0.0293,0.117188 -0.06152,0.213867 l -0.162109,0.432617 z m 1.200195,-0.688476 q -0.230468,0 -0.362304,0.154297 -0.131836,0.154297 -0.131836,0.421875 0,0.276367 0.127929,0.426758 0.12793,0.149414 0.364258,0.149414 0.152344,0 0.342774,-0.05664 v 0.15625 q -0.09082,0.0332 -0.174805,0.04492 -0.08398,0.0127 -0.193359,0.0127 -0.31543,0 -0.486329,-0.191406 -0.169921,-0.192383 -0.169921,-0.543945 0,-0.220703 0.08105,-0.386719 0.08203,-0.166016 0.237305,-0.255859 0.15625,-0.08984 0.367187,-0.08984 0.226563,0 0.394532,0.08398 l -0.07227,0.152344 q -0.170898,-0.07813 -0.324219,-0.07813 z m 1.244141,0 q -0.230469,0 -0.362305,0.154297 -0.131836,0.154297 -0.131836,0.421875 0,0.276367 0.12793,0.426758 0.12793,0.149414 0.364258,0.149414 0.152344,0 0.342773,-0.05664 v 0.15625 q -0.09082,0.0332 -0.174804,0.04492 -0.08399,0.0127 -0.19336,0.0127 -0.315429,0 -0.486328,-0.191406 -0.169922,-0.192383 -0.169922,-0.543945 0,-0.220703 0.08105,-0.386719 0.08203,-0.166016 0.237305,-0.255859 0.15625,-0.08984 0.367187,-0.08984 0.226563,0 0.394531,0.08398 l -0.07227,0.152344 q -0.170899,-0.07813 -0.324219,-0.07813 z"
     id="text6"
     style="font-size:2px;text-anchor:middle;fill:#1a1a1a"
     aria-label="ACC" />
  <path
     d="m 23.201172,30.618164 q 0,0.186523 -0.134766,0.293945 -0.134765,0.107422 -0.375,0.107422 -0.253906,0 -0.392578,-0.06738 v -0.171875 q 0.09082,0.03906 0.198242,0.06152 0.108399,0.02246 0.202149,0.02246 0.160156,0 0.241211,-0.06152 0.08105,-0.06152 0.08105,-0.168945 0,-0.07129 -0.0293,-0.117187 -0.0293,-0.0459 -0.09863,-0.08594 -0.06836,-0.04004 -0.208008,-0.09082 -0.198242,-0.07227 -0.283203,-0.169922 -0.08496,-0.09863 -0.08496,-0.253906 0,-0.166993 0.125,-0.265625 0.125976,-0.09863 0.331054,-0.09863 0.213868,0 0.393555,0.08008 l -0.05566,0.154297 q -0.183594,-0.07617 -0.341797,-0.07617 -0.126953,0 -0.199219,0.05469 -0.07129,0.05469 -0.07129,0.153321 0,0.07031 0.02734,0.117187 0.02832,0.0459 0.08984,0.08398 0.0625,0.03809 0.195312,0.08691 0.15918,0.05859 0.237305,0.114257 0.07813,0.05469 0.115234,0.126954 0.03711,0.07129 0.03711,0.170898 z M 23.489258,31 v -1.427734 h 0.179687 v 1.267578 h 0.624024 V 31 Z m 2.191406,-0.727539 q 0,0.353516 -0.193359,0.541016 Q 25.294922,31 24.93457,31 h -0.397461 v -1.427734 h 0.439453 q 0.333008,0 0.518555,0.183593 0.185547,0.182618 0.185547,0.516602 z m -0.189453,0.0059 q 0,-0.272461 -0.134766,-0.412109 -0.133789,-0.140625 -0.405273,-0.140625 h -0.234375 v 1.120117 h 0.194336 q 0.580078,0 0.580078,-0.567383 z"
     id="text7"
     style="font-size:2px;text-anchor:middle;fill:#1a1a1a"
     aria-label="SLD" />
  <path
     d="m 34.648926,30.257812 h 0.213867 q 0.173828,0 0.253906,-0.06836 0.08008,-0.06836 0.08008,-0.203125 0,-0.134766 -0.08105,-0.196289 -0.08105,-0.0625 -0.262696,-0.0625 h -0.204101 z m 0,0.152344 V 31 h -0.179688 v -1.427734 h 0.393555 q 0.265625,0 0.392578,0.101562 0.12793,0.100586 0.12793,0.303711 0,0.28418 -0.286133,0.382813 L 35.48877,31 h -0.209961 l -0.345704,-0.589844 z m 2.310547,-0.125976 q 0,0.342773 -0.173828,0.539062 -0.172852,0.196289 -0.484375,0.196289 -0.31543,0 -0.488282,-0.192383 -0.171875,-0.193359 -0.171875,-0.544921 0,-0.348633 0.170899,-0.54004 0.171875,-0.192382 0.491211,-0.192382 0.310547,0 0.483398,0.195312 0.172852,0.194336 0.172852,0.539063 z m -1.128907,0 q 0,0.283203 0.120118,0.43164 0.120117,0.148438 0.350586,0.148438 0.229492,0 0.348632,-0.146485 0.119141,-0.146484 0.119141,-0.433593 0,-0.286133 -0.118164,-0.430664 -0.118164,-0.145508 -0.347656,-0.145508 -0.232422,0 -0.352539,0.147461 -0.120118,0.146484 -0.120118,0.428711 z m 2.69043,0 q 0,0.342773 -0.173828,0.539062 -0.172852,0.196289 -0.484375,0.196289 -0.31543,0 -0.488281,-0.192383 -0.171875,-0.193359 -0.171875,-0.544921 0,-0.348633 0.170898,-0.54004 0.171875,-0.192382 0.491211,-0.192382 0.310547,0 0.483399,0.195312 0.172851,0.194336 0.172851,0.539063 z m -1.128906,0 q 0,0.283203 0.120117,0.43164 0.120117,0.148438 0.350586,0.148438 0.229492,0 0.348633,-0.146485 0.11914,-0.146484 0.11914,-0.433593 0,-0.286133 -0.118164,-0.430664 -0.118164,-0.145508 -0.347656,-0.145508 -0.232422,0 -0.352539,0.147461 -0.120117,0.146484 -0.120117,0.428711 z M 39.259277,31 h -0.180664 v -1.269531 h -0.446289 v -0.158203 h 1.070313 v 0.158203 h -0.44336 z"
     id="text8"
     style="font-size:2px;text-anchor:middle;fill:#1a1a1a"
     aria-label="ROOT" />
  <path
     d="m 47.104004,30.618164 q 0,0.186523 -0.134766,0.293945 -0.134765,0.107422 -0.375,0.107422 -0.253906,0 -0.392578,-0.06738 v -0.171875 q 0.09082,0.03906 0.198242,0.06152 0.108399,0.02246 0.202149,0.02246 0.160156,0 0.241211,-0.06152 0.08105,-0.06152 0.08105,-0.168945 0,-0.07129 -0.0293,-0.117187 -0.0293,-0.0459 -0.09863,-0.08594 -0.06836,-0.04004 -0.208008,-0.09082 -0.198242,-0.07227 -0.283203,-0.169922 -0.08496,-0.09863 -0.08496,-0.253906 0,-0.166993 0.125,-0.265625 0.125976,-0.09863 0.331055,-0.09863 0.213867,0 0.393554,0.08008 l -0.05566,0.154297 q -0.183594,-0.07617 -0.341797,-0.07617 -0.126953,0 -0.199218,0.05469 -0.07129,0.05469 -0.07129,0.153321 0,0.07031 0.02734,0.117187 0.02832,0.0459 0.08984,0.08398 0.0625,0.03809 0.195312,0.08691 0.15918,0.05859 0.237305,0.114257 0.07813,0.05469 0.115235,0.126954 0.03711,0.07129 0.03711,0.170898 z m 0.899414,-0.908203 q -0.230469,0 -0.362305,0.154297 -0.131836,0.154297 -0.131836,0.421875 0,0.276367 0.12793,0.426758 0.12793,0.149414 0.364258,0.149414 0.152344,0 0.342773,-0.05664 v 0.15625 q -0.09082,0.0332 -0.174804,0.04492 -0.08399,0.0127 -0.19336,0.0127 -0.315429,0 -0.486328,-0.191406 -0.169922,-0.192383 -0.169922,-0.543945 0,-0.220703 0.08106,-0.386719 0.08203,-0.166016 0.237305,-0.255859 0.15625,-0.08984 0.367187,-0.08984 0.226563,0 0.394531,0.08398 l -0.07226,0.152344 q -0.170899,-0.07813 -0.324219,-0.07813 z M 49.55127,31 49.379395,30.557617 H 48.812988 L 48.643066,31 h -0.18164 l 0.557617,-1.433594 h 0.162109 L 49.737793,31 Z m -0.225586,-0.601563 -0.160157,-0.432617 -0.06836,-0.213867 q -0.0293,0.117188 -0.06152,0.213867 l -0.16211,0.432617 z M 49.934082,31 v -1.427734 h 0.179688 v 1.267578 h 0.624023 V 31 Z m 1.845703,0 h -0.797851 v -1.427734 h 0.797851 v 0.158203 h -0.618164 v 0.445312 h 0.582031 v 0.15625 h -0.582031 v 0.509766 h 0.618164 z"
     id="text9"
     style="font-size:2px;text-anchor:middle;fill:#1a1a1a"
     aria-label="SCALE" />
  <!-- Octave section labels - dark on light -->
  <path
     d="m 7.7820313,78.597787 v -0.147656 h 0.4359374 v 0.147656 z m 0.3102539,-0.65918 z"
     id="text10"
     style="font-size:1.8px;text-anchor:middle;fill:#1a1a1a"
     aria-label="-" />
  <path
     d="m 19.934082,78.544174 h -0.340137 v -0.131836 h 0.340137 v -0.341016 h 0.131836 v 0.341016 h 0.340137 v 0.131836 h -0.340137 v 0.339258 h -0.131836 z m -0.03164,-0.605567 z"
     id="text11"
     style="font-size:1.8px;text-anchor:middle;fill:#1a1a1a"
     aria-label="+" />
  <path
     d="m 13.524512,86.355762 q 0,0.308496 -0.156446,0.485156 -0.155566,0.17666 -0.435937,0.17666 -0.283887,0 -0.439453,-0.173144 -0.154688,-0.174024 -0.154688,-0.49043 0,-0.31377 0.153809,-0.486035 0.154687,-0.173145 0.44209,-0.173145 0.279492,0 0.435058,0.175781 0.155567,0.174903 0.155567,0.485157 z m -1.016016,0 q 0,0.254883 0.108106,0.388476 0.108105,0.133594 0.315527,0.133594 0.206543,0 0.313769,-0.131836 0.107227,-0.131836 0.107227,-0.390234 0,-0.25752 -0.106348,-0.387598 -0.106347,-0.130957 -0.31289,-0.130957 -0.20918,0 -0.317285,0.132715 -0.108106,0.131836 -0.108106,0.38584 z m 1.850098,-0.516797 q -0.207422,0 -0.326074,0.138867 -0.118653,0.138867 -0.118653,0.379688 0,0.24873 0.115137,0.384082 0.115137,0.134472 0.327832,0.134472 0.137109,0 0.308496,-0.05098 v 0.140625 q -0.08174,0.02988 -0.157324,0.04043 -0.07559,0.01143 -0.174024,0.01143 -0.283886,0 -0.437695,-0.172265 -0.15293,-0.173145 -0.15293,-0.489551 0,-0.198633 0.07295,-0.348047 0.07383,-0.149414 0.213574,-0.230274 0.140625,-0.08086 0.330469,-0.08086 0.203906,0 0.355078,0.07559 l -0.06504,0.137109 q -0.153809,-0.07031 -0.291797,-0.07031 z M 15.352637,87 h -0.162598 v -1.142578 h -0.40166 v -0.142383 h 0.963281 v 0.142383 h -0.399023 z"
     id="text12"
     style="font-size:1.8px;text-anchor:middle;fill:#1a1a1a"
     aria-label="OCT" />
  <!-- Octave LED labels -->
  <path
     d="m 29.405273,86.616211 v -0.123047 h 0.363282 v 0.123047 z m 0.258545,-0.549316 z M 30.580078,87 h -0.667969 v -0.114258 l 0.256348,-0.279053 q 0.05493,-0.05933 0.09814,-0.108398 0.04321,-0.04907 0.07324,-0.09595 0.03076,-0.04687 0.04687,-0.09375 0.01611,-0.04761 0.01611,-0.103272 0,-0.04321 -0.01245,-0.07617 -0.01245,-0.03296 -0.03589,-0.05566 -0.02271,-0.02344 -0.0542,-0.03516 -0.03149,-0.01172 -0.07031,-0.01172 -0.06958,0 -0.125976,0.02857 -0.05566,0.02783 -0.106201,0.07178 l -0.07471,-0.08716 q 0.0293,-0.02637 0.06299,-0.04907 0.03369,-0.02344 0.07251,-0.04028 0.03882,-0.01685 0.08203,-0.02637 0.04321,-0.01025 0.09082,-0.01025 0.07031,0 0.126709,0.01978 0.05713,0.01977 0.09668,0.05713 0.03955,0.03662 0.06079,0.09009 0.02197,0.05273 0.02197,0.119384 0,0.06226 -0.01978,0.118653 -0.01904,0.0564 -0.05347,0.111328 -0.03369,0.0542 -0.0813,0.109131 -0.04687,0.05493 -0.101807,0.114257 l -0.205811,0.218995 v 0.0059 h 0.504639 z"
     id="text13"
     style="font-size:1.5px;text-anchor:middle;fill:#888888"
     aria-label="-2" />
  <path
     d="m 34.905273,86.616211 v -0.123047 h 0.363282 v 0.123047 z m 0.258545,-0.549316 z M 35.862549,87 h -0.128906 v -0.668701 q 0,-0.03149 0,-0.06738 7.32e-4,-0.03589 0.0015,-0.07104 0.0015,-0.03589 0.0022,-0.06811 0.0015,-0.03296 0.0022,-0.05786 -0.01245,0.01318 -0.02197,0.02271 -0.0095,0.0095 -0.01977,0.01831 -0.0095,0.0088 -0.02051,0.01904 -0.01099,0.0095 -0.02637,0.02271 l -0.108399,0.08862 -0.07031,-0.09009 0.280518,-0.218994 h 0.109863 z"
     id="text14"
     style="font-size:1.5px;text-anchor:middle;fill:#888888"
     aria-label="-1" />
  <path
     d="m 41.342773,86.463135 q 0,0.129638 -0.01904,0.232177 -0.01831,0.10254 -0.06006,0.173584 -0.04102,0.07104 -0.106201,0.108399 -0.06519,0.03735 -0.158203,0.03735 -0.08643,0 -0.150879,-0.03735 -0.06372,-0.03735 -0.106202,-0.108399 -0.04175,-0.07104 -0.06299,-0.173584 -0.02051,-0.102539 -0.02051,-0.232177 0,-0.129639 0.01831,-0.232178 0.01904,-0.102539 0.05933,-0.172852 0.04102,-0.07104 0.105469,-0.108398 0.06518,-0.03735 0.157471,-0.03735 0.08716,0 0.151611,0.03735 0.06445,0.03662 0.106933,0.107666 0.04248,0.07031 0.06372,0.172852 0.02124,0.102539 0.02124,0.23291 z m -0.548584,0 q 0,0.109863 0.01099,0.191894 0.01099,0.08203 0.03516,0.136963 0.02417,0.0542 0.06299,0.08203 0.03955,0.0271 0.09595,0.0271 0.0564,0 0.09595,-0.0271 0.03955,-0.0271 0.06445,-0.0813 0.02563,-0.0542 0.03662,-0.136231 0.01172,-0.08276 0.01172,-0.193359 0,-0.109864 -0.01172,-0.191895 -0.01099,-0.08203 -0.03662,-0.13623 -0.0249,-0.0542 -0.06445,-0.0813 -0.03955,-0.0271 -0.09595,-0.0271 -0.0564,0 -0.09595,0.0271 -0.03882,0.0271 -0.06299,0.0813 -0.02417,0.0542 -0.03516,0.13623 -0.01099,0.08203 -0.01099,0.191895 z"
     id="text15"
     style="font-size:1.5px;text-anchor:middle;fill:#888888"
     aria-label="0" />
  <path
     d="M 46.031982,86.571533 H 45.748535 V 86.46167 h 0.283447 v -0.28418 h 0.109864 v 0.28418 h 0.283447 v 0.109863 h -0.283447 v 0.282715 h -0.109864 z m -0.02637,-0.504638 z M 47.020752,87 h -0.128906 v -0.668701 q 0,-0.03149 0,-0.06738 7.32e-4,-0.03589 0.0015,-0.07104 0.0015,-0.03589 0.0022,-0.06811 0.0015,-0.03296 0.0022,-0.05786 -0.01245,0.01318 -0.02197,0.02271 -0.0095,0.0095 -0.01978,0.01831 -0.0095,0.0088 -0.02051,0.01904 -0.01099,0.0095 -0.02637,0.02271 l -0.108398,0.08862 -0.07031,-0.09009 0.280518,-0.218994 h 0.109863 z"
     id="text16"
     style="font-size:1.5px;text-anchor:middle;fill:#888888"
     aria-label="+1" />
  <path
     d="M 51.531982,86.571533 H 51.248535 V 86.46167 h 0.283447 v -0.28418 h 0.109864 v 0.28418 h 0.283447 v 0.109863 h -0.283447 v 0.282715 h -0.109864 z m -0.02637,-0.504638 z M 52.738281,87 h -0.667969 v -0.114258 l 0.256348,-0.279053 q 0.05493,-0.05933 0.09815,-0.108398 0.04321,-0.04907 0.07324,-0.09595 0.03076,-0.04687 0.04687,-0.09375 0.01611,-0.04761 0.01611,-0.103272 0,-0.04321 -0.01245,-0.07617 -0.01245,-0.03296 -0.03589,-0.05566 -0.02271,-0.02344 -0.0542,-0.03516 -0.03149,-0.01172 -0.07031,-0.01172 -0.06958,0 -0.125977,0.02857 -0.05566,0.02783 -0.106201,0.07178 l -0.07471,-0.08716 q 0.0293,-0.02637 0.06299,-0.04907 0.03369,-0.02344 0.07251,-0.04028 0.03882,-0.01685 0.08203,-0.02637 0.04321,-0.01025 0.09082,-0.01025 0.07031,0 0.126709,0.01978 0.05713,0.01977 0.09668,0.05713 0.03955,0.03662 0.06079,0.09009 0.02197,0.05273 0.02197,0.119384 0,0.06226 -0.01978,0.118653 -0.01904,0.0564 -0.05347,0.111328 -0.03369,0.0542 -0.0813,0.109131 -0.04687,0.05493 -0.101807,0.114257 l -0.20581,0.218995 v 0.0059 h 0.504638 z"
     id="text17"
     style="font-size:1.5px;text-anchor:middle;fill:#888888"
     aria-label="+2" />
  <!-- CV jack outline circles -->
  <circle
     cx="10"
     cy="100"
     r="4.3"
     fill="none"
     stroke="#444444"
     stroke-width="0.3"
     id="outline-clk" />
  <circle
     cx="24"
     cy="100"
     r="4.3"
     fill="none"
     stroke="#444444"
     stroke-width="0.3"
     id="outline-rst" />
  <circle
     cx="38"
     cy="100"
     r="4.3"
     fill="none"
     stroke="#444444"
     stroke-width="0.3"
     id="outline-gen" />
  <!-- Input labels - light on dark -->
  <path
     d="m 9.0307617,92.709961 q -0.2304687,0 -0.3623047,0.154297 -0.1318359,0.154297 -0.1318359,0.421875 0,0.276367 0.1279297,0.426758 0.1279297,0.149414 0.3642578,0.149414 0.1523437,0 0.3427734,-0.05664 v 0.15625 q -0.09082,0.0332 -0.1748047,0.04492 -0.083984,0.01269 -0.1933593,0.01269 -0.3154297,0 -0.4863282,-0.191406 Q 8.347168,93.635742 8.347168,93.28418 q 0,-0.220703 0.081055,-0.386719 0.082031,-0.166016 0.2373046,-0.255859 0.15625,-0.08984 0.3671875,-0.08984 0.2265625,0 0.3945313,0.08398 l -0.072266,0.152344 Q 9.184082,92.709961 9.0307617,92.709961 Z M 9.6831055,94 V 92.572266 H 9.862793 v 1.267578 h 0.624023 V 94 Z m 2.0917965,0 h -0.211914 l -0.506836,-0.681641 -0.145507,0.12793 V 94 h -0.179688 v -1.427734 h 0.179688 v 0.704101 l 0.123046,-0.135742 0.508789,-0.568359 h 0.209961 l -0.565429,0.62207 z"
     id="text18"
     style="font-size:2px;text-anchor:middle;fill:#b3b3b3"
     aria-label="CLK" />
  <path
     d="m 22.646973,93.257812 h 0.213867 q 0.173828,0 0.253906,-0.06836 0.08008,-0.06836 0.08008,-0.203125 0,-0.134766 -0.08105,-0.196289 -0.08105,-0.0625 -0.262696,-0.0625 h -0.204101 z m 0,0.152344 V 94 h -0.179688 v -1.427734 h 0.393555 q 0.265625,0 0.392578,0.101562 0.12793,0.100586 0.12793,0.303711 0,0.28418 -0.286133,0.382813 L 23.486816,94 h -0.209961 l -0.345703,-0.589844 z m 1.874023,0.208008 q 0,0.186523 -0.134766,0.293945 -0.134765,0.107422 -0.375,0.107422 -0.253906,0 -0.392578,-0.06738 v -0.171875 q 0.09082,0.03906 0.198243,0.06152 0.108398,0.02246 0.202148,0.02246 0.160156,0 0.241211,-0.06152 0.08105,-0.06152 0.08105,-0.168945 0,-0.07129 -0.0293,-0.117187 -0.0293,-0.0459 -0.09863,-0.08594 -0.06836,-0.04004 -0.208008,-0.09082 -0.198242,-0.07227 -0.283203,-0.169922 -0.08496,-0.09863 -0.08496,-0.253906 0,-0.166993 0.125,-0.265625 0.125977,-0.09863 0.331055,-0.09863 0.213867,0 0.393554,0.08008 l -0.05566,0.154297 q -0.183593,-0.07617 -0.341797,-0.07617 -0.126953,0 -0.199218,0.05469 -0.07129,0.05469 -0.07129,0.153321 0,0.07031 0.02734,0.117187 0.02832,0.0459 0.08984,0.08398 0.0625,0.03809 0.195313,0.08691 0.159179,0.05859 0.237304,0.114257 0.07813,0.05469 0.115235,0.126954 0.03711,0.07129 0.03711,0.170898 z M 25.26123,94 h -0.180664 v -1.269531 h -0.446289 v -0.158203 h 1.070313 v 0.158203 h -0.44336 z"
     id="text19"
     style="font-size:2px;text-anchor:middle;fill:#b3b3b3"
     aria-label="RST" />
  <path
     d="m 36.770508,93.246094 h 0.493164 v 0.700195 q -0.113281,0.03613 -0.230469,0.05469 -0.117187,0.01855 -0.271484,0.01855 -0.326172,0 -0.504883,-0.193359 -0.178711,-0.19336 -0.178711,-0.540039 0,-0.223633 0.08887,-0.390625 0.08887,-0.166992 0.25586,-0.254883 0.167968,-0.08887 0.395507,-0.08887 0.228516,0 0.425782,0.08398 l -0.06836,0.15625 q -0.188476,-0.08203 -0.368164,-0.08203 -0.254883,0 -0.398437,0.154297 -0.143555,0.154297 -0.143555,0.421875 0,0.283203 0.137695,0.430664 0.137696,0.147461 0.400391,0.147461 0.143555,0 0.280273,-0.03418 V 93.40625 H 36.770508 Z M 38.404297,94 h -0.797852 v -1.427734 h 0.797852 v 0.158203 h -0.618164 v 0.445312 h 0.582031 v 0.15625 h -0.582031 v 0.509766 h 0.618164 z m 1.446289,0 h -0.209961 l -0.764648,-1.185547 h -0.0078 l 0.0049,0.0791 q 0.01172,0.177734 0.01172,0.308593 V 94 H 38.71875 v -1.427734 h 0.208008 l 0.04395,0.06934 0.46875,0.724609 0.249024,0.387695 h 0.0078 q -0.002,-0.02344 -0.0078,-0.166992 -0.0059,-0.144531 -0.0059,-0.208984 v -0.805664 h 0.167969 z"
     id="text20"
     style="font-size:2px;text-anchor:middle;fill:#b3b3b3"
     aria-label="GEN" />
  <!-- Output jack outline circles -->
  <circle
     cx="10"
     cy="117"
     r="4.3"
     fill="none"
     stroke="#444444"
     stroke-width="0.3"
     id="outline-voct" />
  <circle
     cx="24"
     cy="117"
     r="4.3"
     fill="none"
     stroke="#444444"
     stroke-width="0.3"
     id="outline-gate" />
  <circle
     cx="38"
     cy="117"
     r="4.3"
     fill="none"
     stroke="#444444"
     stroke-width="0.3"
     id="outline-acc-out" />
  <circle
     cx="51"
     cy="117"
     r="4.3"
     fill="none"
     stroke="#444444"
     stroke-width="0.3"
     id="outline-slide" />
  <!-- Output labels - light on dark -->
  <path
     d="m 7.0019531,109.57227 h 0.1884766 l 0.321289,0.91601 q 0.061523,0.17383 0.089844,0.31152 0.024414,-0.12304 0.09082,-0.31542 l 0.319336,-0.91211 H 8.2021484 L 7.6923828,111 H 7.5117187 Z m 1.9746094,-0.23731 -0.5244141,1.99609 H 8.2861328 L 8.8125,109.33496 Z m -0.3320312,0.4209 z m -0.00488,-0.54883 z m 0.030273,2.32813 z m 1.8310551,-1.25098 q 0,0.34277 -0.173829,0.53906 -0.172851,0.19629 -0.4843746,0.19629 -0.3154296,0 -0.4882812,-0.19238 -0.171875,-0.19336 -0.171875,-0.54492 0,-0.34864 0.1708984,-0.54004 0.171875,-0.19239 0.491211,-0.19239 0.3105464,0 0.4833984,0.19532 0.172852,0.19433 0.172852,0.53906 z m -1.1289067,0 q 0,0.2832 0.1201172,0.43164 0.1201172,0.14844 0.3505859,0.14844 0.2294926,0 0.3486326,-0.14649 0.119141,-0.14648 0.119141,-0.43359 0,-0.28613 -0.118164,-0.43066 -0.118164,-0.14551 -0.3476564,-0.14551 -0.2324219,0 -0.3525391,0.14746 -0.1201172,0.14648 -0.1201172,0.42871 z m 2.0556637,-0.57422 q -0.230468,0 -0.362304,0.1543 -0.131836,0.15429 -0.131836,0.42187 0,0.27637 0.127929,0.42676 0.12793,0.14941 0.364258,0.14941 0.152344,0 0.342774,-0.0566 v 0.15625 q -0.09082,0.0332 -0.174805,0.0449 -0.08398,0.0127 -0.193359,0.0127 -0.31543,0 -0.486328,-0.1914 -0.169922,-0.19239 -0.169922,-0.54395 0,-0.2207 0.08105,-0.38672 0.08203,-0.16601 0.237305,-0.25586 0.15625,-0.0898 0.367188,-0.0898 0.226562,0 0.394531,0.084 l -0.07227,0.15235 q -0.170898,-0.0781 -0.324219,-0.0781 z M 12.532227,111 h -0.180664 v -1.26953 h -0.44629 v -0.1582 h 1.070313 v 0.1582 h -0.443359 z"
     id="text21"
     style="font-size:2px;text-anchor:middle;fill:#b3b3b3"
     aria-label="V/OCT" />
  <path
     d="m 22.369141,110.24609 h 0.493164 v 0.7002 q -0.113282,0.0361 -0.230469,0.0547 -0.117188,0.0186 -0.271484,0.0186 -0.326172,0 -0.504883,-0.19336 -0.178711,-0.19336 -0.178711,-0.54004 0,-0.22363 0.08887,-0.39062 0.08887,-0.16699 0.255859,-0.25488 0.167969,-0.0889 0.395508,-0.0889 0.228516,0 0.425781,0.084 l -0.06836,0.15625 q -0.188477,-0.082 -0.368164,-0.082 -0.254883,0 -0.398438,0.1543 -0.143554,0.15429 -0.143554,0.42187 0,0.28321 0.137695,0.43067 0.137695,0.14746 0.400391,0.14746 0.143554,0 0.280273,-0.0342 v -0.42383 H 22.369141 Z M 24.100586,111 23.928711,110.55762 H 23.362305 L 23.192383,111 h -0.181641 l 0.557617,-1.43359 h 0.16211 L 24.287109,111 Z m -0.225586,-0.60156 -0.160156,-0.43262 -0.06836,-0.21387 q -0.0293,0.11719 -0.06152,0.21387 l -0.162109,0.43262 z M 24.867187,111 h -0.180664 v -1.26953 h -0.446289 v -0.1582 h 1.070313 v 0.1582 h -0.44336 z m 1.458008,0 h -0.797851 v -1.42773 h 0.797851 v 0.1582 h -0.618164 v 0.44531 h 0.582031 v 0.15625 h -0.582031 v 0.50977 h 0.618164 z"
     id="text22"
     style="font-size:2px;text-anchor:middle;fill:#b3b3b3"
     aria-label="GATE" />
  <path
     d="m 37.206543,111 -0.171875,-0.44238 H 36.468262 L 36.29834,111 h -0.181641 l 0.557617,-1.43359 h 0.16211 L 37.393066,111 Z m -0.225586,-0.60156 -0.160156,-0.43262 -0.06836,-0.21387 q -0.0293,0.11719 -0.06152,0.21387 l -0.162109,0.43262 z m 1.200195,-0.68848 q -0.230468,0 -0.362304,0.1543 -0.131836,0.15429 -0.131836,0.42187 0,0.27637 0.127929,0.42676 0.12793,0.14941 0.364258,0.14941 0.152344,0 0.342774,-0.0566 v 0.15625 q -0.09082,0.0332 -0.174805,0.0449 -0.08398,0.0127 -0.193359,0.0127 -0.31543,0 -0.486329,-0.1914 -0.169921,-0.19239 -0.169921,-0.54395 0,-0.2207 0.08105,-0.38672 0.08203,-0.16601 0.237305,-0.25586 0.15625,-0.0898 0.367187,-0.0898 0.226563,0 0.394532,0.084 l -0.07227,0.15235 q -0.170898,-0.0781 -0.324219,-0.0781 z m 1.244141,0 q -0.230469,0 -0.362305,0.1543 -0.131836,0.15429 -0.131836,0.42187 0,0.27637 0.12793,0.42676 0.12793,0.14941 0.364258,0.14941 0.152344,0 0.342773,-0.0566 v 0.15625 q -0.09082,0.0332 -0.174804,0.0449 -0.08399,0.0127 -0.19336,0.0127 -0.315429,0 -0.486328,-0.1914 -0.169922,-0.19239 -0.169922,-0.54395 0,-0.2207 0.08106,-0.38672 0.08203,-0.16601 0.237305,-0.25586 0.15625,-0.0898 0.367187,-0.0898 0.226563,0 0.394531,0.084 l -0.07226,0.15235 q -0.170899,-0.0781 -0.324219,-0.0781 z"
     id="text23"
     style="font-size:2px;text-anchor:middle;fill:#b3b3b3"
     aria-label="ACC" />
  <path
     d="m 49.306152,110.61816 q 0,0.18653 -0.134765,0.29395 -0.134766,0.10742 -0.375,0.10742 -0.253907,0 -0.392578,-0.0674 v -0.17188 q 0.09082,0.0391 0.198242,0.0615 0.108398,0.0225 0.202148,0.0225 0.160156,0 0.241211,-0.0615 0.08106,-0.0615 0.08106,-0.16894 0,-0.0713 -0.0293,-0.11719 -0.0293,-0.0459 -0.09863,-0.0859 -0.06836,-0.04 -0.208008,-0.0908 -0.198242,-0.0723 -0.283203,-0.16992 -0.08496,-0.0986 -0.08496,-0.2539 0,-0.167 0.125,-0.26563 0.125977,-0.0986 0.331055,-0.0986 0.213867,0 0.393555,0.0801 l -0.05566,0.15429 q -0.183594,-0.0762 -0.341797,-0.0762 -0.126953,0 -0.199219,0.0547 -0.07129,0.0547 -0.07129,0.15332 0,0.0703 0.02734,0.11719 0.02832,0.0459 0.08984,0.084 0.0625,0.0381 0.195313,0.0869 0.15918,0.0586 0.237305,0.11426 0.07813,0.0547 0.115234,0.12696 0.03711,0.0713 0.03711,0.17089 z M 49.594238,111 v -1.42773 h 0.179688 v 1.26757 h 0.624023 V 111 Z m 1.449219,0 h -0.515625 v -0.10352 l 0.167969,-0.0381 v -1.14258 l -0.167969,-0.04 v -0.10351 h 0.515625 v 0.10351 l -0.167969,0.04 v 1.14258 l 0.167969,0.0381 z m 1.419922,-0.72754 q 0,0.35352 -0.193359,0.54102 Q 52.077637,111 51.717285,111 h -0.397461 v -1.42773 h 0.439453 q 0.333008,0 0.518555,0.18359 0.185547,0.18262 0.185547,0.5166 z m -0.189453,0.006 q 0,-0.27246 -0.134766,-0.41211 -0.133789,-0.14062 -0.405273,-0.14062 h -0.234375 v 1.12011 h 0.194336 q 0.580078,0 0.580078,-0.56738 z M 53.577637,111 h -0.797852 v -1.42773 h 0.797852 v 0.1582 h -0.618164 v 0.44531 h 0.582031 v 0.15625 h -0.582031 v 0.50977 h 0.618164 z"
     id="text24"
     style="font-size:2px;text-anchor:middle;fill:#b3b3b3"
     aria-label="SLIDE" />
  <!-- Acid smiley - signature brand element -->
  <!-- Brand - light on darkest -->
  <path
     style="font-size:8px;font-family:'JetBrains Mono';-inkscape-font-specification:'JetBrains Mono';white-space:pre;display:inline;fill:#b3b3b3;stroke-width:0.264583"
     d="m 25.2603,127.2434 -0.389467,-1.16417 h 0.194734 l 0.258233,0.78317 q 0.02328,0.0699 0.04233,0.13547 0.01905,0.0635 0.02752,0.0995 0.01058,-0.036 0.02963,-0.0995 0.01905,-0.0656 0.04022,-0.13547 l 0.251883,-0.78317 H 25.908 l -0.389467,1.16417 z m 1.397001,0.0212 q -0.201083,0 -0.321733,-0.11854 -0.12065,-0.12065 -0.12065,-0.32596 v -0.74084 h 0.1905 v 0.74084 q 0,0.13123 0.06773,0.20531 0.06773,0.072 0.18415,0.072 0.118533,0 0.186266,-0.072 0.06985,-0.0741 0.06985,-0.20531 v -0.74084 h 0.1905 v 0.74084 q 0,0.20531 -0.122766,0.32596 -0.122767,0.11854 -0.32385,0.11854 z m 1.430867,-0.0212 q -0.1016,0 -0.1778,-0.0402 -0.0762,-0.0402 -0.118533,-0.1143 -0.04233,-0.0741 -0.04233,-0.17356 v -1.04352 h -0.391584 v -0.17357 h 0.582084 v 1.21709 q 0,0.072 0.04022,0.1143 0.04022,0.0402 0.10795,0.0402 h 0.370417 v 0.17357 z m 0.670984,0.381 v -1.54517 h 0.1905 v 0.22225 h 0.0381 l -0.0381,0.0445 q 0,-0.13335 0.08678,-0.20955 0.0889,-0.0783 0.232833,-0.0783 0.175683,0 0.2794,0.11641 0.105833,0.1143 0.105833,0.31539 v 0.34078 q 0,0.13335 -0.04868,0.23072 -0.04657,0.0974 -0.13335,0.15028 -0.08467,0.0529 -0.2032,0.0529 -0.141817,0 -0.230717,-0.0783 -0.0889,-0.0783 -0.0889,-0.20955 l 0.0381,0.0445 h -0.04233 l 0.0042,0.26458 v 0.33867 z m 0.446617,-0.52493 q 0.12065,0 0.188383,-0.072 0.06985,-0.072 0.06985,-0.20743 v -0.3175 q 0,-0.13547 -0.06985,-0.20744 -0.06773,-0.072 -0.188383,-0.072 -0.116417,0 -0.186267,0.0741 -0.06985,0.0741 -0.06985,0.20532 v 0.3175 q 0,0.13123 0.06985,0.20531 0.06985,0.0741 0.186267,0.0741 z m 1.263652,0.1651 q -0.137583,0 -0.2413,-0.055 -0.1016,-0.055 -0.15875,-0.15451 -0.05503,-0.1016 -0.05503,-0.23495 v -0.3175 q 0,-0.13547 0.05503,-0.23495 0.05715,-0.0995 0.15875,-0.15452 0.103717,-0.055 0.2413,-0.055 0.137583,0 0.239183,0.055 0.103717,0.055 0.15875,0.15452 0.05715,0.0995 0.05715,0.23495 v 0.20531 h -0.7239 v 0.11219 q 0,0.13758 0.06985,0.21166 0.06985,0.072 0.198967,0.072 0.110067,0 0.1778,-0.0381 0.06773,-0.0402 0.08255,-0.11853 h 0.1905 q -0.01905,0.14605 -0.143933,0.23283 -0.122767,0.0847 -0.306917,0.0847 z m 0.268817,-0.68369 v -0.0783 q 0,-0.13759 -0.06985,-0.21167 -0.06773,-0.0741 -0.198967,-0.0741 -0.129117,0 -0.198967,0.0741 -0.06985,0.0741 -0.06985,0.21167 v 0.0614 h 0.55245 z m 0.9652,0.67945 q -0.118534,0 -0.207434,-0.036 -0.08678,-0.0381 -0.1397,-0.10583 -0.0508,-0.0677 -0.06138,-0.16087 h 0.1905 q 0.0127,0.0614 0.06773,0.0974 0.05715,0.036 0.150284,0.036 h 0.0889 q 0.112183,0 0.167216,-0.0445 0.05503,-0.0466 0.05503,-0.12277 0,-0.0741 -0.0508,-0.11641 -0.04868,-0.0444 -0.14605,-0.0593 l -0.156634,-0.0254 q -0.17145,-0.0296 -0.256116,-0.10583 -0.08255,-0.0783 -0.08255,-0.22649 0,-0.15663 0.09948,-0.2413 0.09948,-0.0868 0.29845,-0.0868 h 0.08043 q 0.167217,0 0.268817,0.0783 0.1016,0.0783 0.122767,0.21166 h -0.1905 q -0.0127,-0.055 -0.0635,-0.0868 -0.0508,-0.0339 -0.137584,-0.0339 h -0.08043 q -0.10795,0 -0.15875,0.0402 -0.04868,0.0402 -0.04868,0.12065 0,0.072 0.04233,0.10583 0.04233,0.0339 0.13335,0.0487 l 0.156633,0.0254 q 0.188384,0.0296 0.27305,0.11006 0.08678,0.0804 0.08678,0.23284 0,0.16086 -0.103717,0.254 -0.1016,0.091 -0.309033,0.091 z m 1.062566,-0.0169 0.55245,-1.3716 h -0.5842 v 0.2286 h -0.1905 v -0.40217 h 0.963084 v 0.18627 l -0.535517,1.3589 z m 1.274234,0 0.43815,-0.70273 -0.0085,-0.006 q -0.04022,0.0593 -0.110067,0.091 -0.06985,0.0318 -0.156633,0.0318 -0.124883,0 -0.220133,-0.0593 -0.09313,-0.0593 -0.143934,-0.16722 -0.0508,-0.11007 -0.0508,-0.25612 0,-0.15028 0.06138,-0.26035 0.06138,-0.11218 0.17145,-0.17356 0.110066,-0.0635 0.256116,-0.0635 0.148167,0 0.258234,0.0635 0.112183,0.0614 0.173566,0.17356 0.06138,0.11007 0.06138,0.26035 0,0.11642 -0.03387,0.2286 -0.03175,0.11219 -0.09737,0.2159 l -0.38735,0.62442 z m 0.239183,-0.74083 q 0.135467,0 0.218017,-0.0889 0.08255,-0.091 0.08255,-0.23919 0,-0.14816 -0.08255,-0.23706 -0.08255,-0.091 -0.218017,-0.091 -0.135467,0 -0.218017,0.091 -0.08255,0.0889 -0.08255,0.23706 0,0.14817 0.08255,0.23919 0.08255,0.0889 0.218017,0.0889 z"
     id="text23-4"
     inkscape:label="brand"
     aria-label="vulpes79" />
  <g
     inkscape:groupmode="layer"
     id="layer1-0"
     inkscape:label="acid smiley"
     transform="matrix(0.00333856,0,0,0.00333856,44.699277,91.823424)">
    <path
       id="path3"
       d="m 10522.6,4306.4 c -30.6,-199.5 -108.4,-395.8 -250,-523.7 -46.8,-42.2 -101.7,-72.7 -160.6,-91.9 -1125.5,-368.1 -643.97,2082.4 -109.5,2436.3 349,-426.1 604.6,-1267.6 520.1,-1820.7"
       style="fill:#f7e71d;fill-opacity:1;fill-rule:nonzero;stroke:none"
       transform="matrix(0.13333333,0,0,-0.13333333,0,4000)" />
    <path
       id="path4"
       d="m 22390.1,16499.1 c 0,-1300 -346.2,-2589.8 -1002.4,-3712.6 -391,-668.9 -966.3,-1083.9 -1281.6,-1802.3 -449.2,-1023.5 -651.6,-2052.8 -146.6,-3089.2 312.2,-640.6 595.8,-1618.5 -70.7,-2146.4 -665.2,-526.7 -1470,15 -1539.8,775.9 -60.2,656.8 330.4,1611.5 -97.5,2191.7 -344.3,466.7 -423.2,-141.1 -622,-419.3 -233.3,-318.9 -571.3,-161.5 -825.7,-448.6 -668.1,-754 -34.7,-3649.6 255,-4426 147,-393.7 296.4,-810.4 225.4,-1224.6 -110.8,-646.8 -804.2,-1114.2 -1454.6,-1028 -650.5,86.2 -1183.3,669.6 -1268.7,1320.1 -58.5,444.8 66.2,891.8 204.9,1318.5 138.6,426.6 294.2,857.6 300,1306.2 4.4,343.4 -103.3,877.9 -440.9,1055.5 -201.6,106 -464.5,-86 -640,100.4 -256.1,272.2 32.8,983.5 70.6,1299.4 34.5,288.2 40.3,641.3 -204.7,796.8 -343.8,218.3 -785.9,-65.3 -982,-358.3 -269.3,-402.3 -112.4,-711.9 -55.6,-1127.6 71.4,-523.1 -328,-977.8 -865.9,-936.3 -635.8,49.1 -678,643.1 -611.8,1158.8 80.5,627.4 367,2876.9 -784.6,2819.1 -416.2,-21.2 -590.27,-695.2 -1093.39,-364.8 -251.02,164.9 -325,493.5 -378.12,789.2 -189.96,1057.3 -287.92,2122 -755.41,3080 -459.42,941.5 -669.23,2029.8 -669.24,3072.4 0,4069.1 3298.66,7367.7 7367.66,7367.7 4069.1,0 7367.7,-3298.6 7367.7,-7367.7"
       style="fill:#f7e71d;fill-opacity:1;fill-rule:nonzero;stroke:none"
       transform="matrix(0.13333333,0,0,-0.13333333,0,4000)" />
    <path
       id="path5"
       d="m 20657.4,13788.1 c -153,-261.7 -340.8,-484.2 -539.7,-719.8 -276.2,-327.1 -561.7,-665.3 -762.9,-1123.7 -268.7,-612.1 -420.3,-1157.3 -463.4,-1666.7 -53.2,-627.3 52.7,-1202.5 323.5,-1758.4 178.7,-366.6 540.2,-1261.9 40.5,-1657.6 -162.2,-128.4 -329.5,-157.1 -497.2,-85.2 -213.1,91.2 -372.2,326 -395.9,584.1 -17,185.4 13.7,425.8 46.2,680.4 72,565 153.7,1205.3 -220.1,1712.2 -178.5,241.9 -379.5,353.1 -597.5,330.6 -212.4,-21.9 -349.6,-166.1 -427.3,-283.3 -57.1,-86.1 -101.1,-182 -143.5,-274.7 -32.8,-71.5 -69.9,-152.5 -99.8,-195.1 -30.6,-41.1 -55.7,-52 -194,-86.5 -160.2,-39.8 -402.2,-100.1 -606.9,-331.1 -217.1,-245.1 -342.2,-616.4 -382.2,-1135 -29.6,-384.6 -11.9,-849.9 52.8,-1383.1 110.9,-913.4 345,-1873.4 509.1,-2313 122.1,-327.2 260.5,-698.1 205.9,-1017.3 -71.7,-418.4 -561.6,-758.1 -1007.9,-698.9 -454.5,60.2 -860.7,488.8 -924.6,975.7 -48.5,369.2 66.6,767 188.7,1142.7 12.5,38.4 25.1,76.9 37.8,115.5 135.6,413 275.8,840.1 281.8,1309.2 6.3,490.4 -161.4,1155.2 -654.7,1414.6 -120.9,63.6 -240.5,80.2 -344.6,80.2 -66.1,0 -126,-6.7 -175.9,-12.3 -3.2,-0.3 -6.6,-0.7 -10.2,-1.1 -1.2,33.1 0.2,80.8 8.7,147.7 16.9,133.6 54.8,287.6 88.3,423.4 32.1,130.6 62.5,253.8 75.3,360.4 25.7,215.1 104.2,869.8 -387.5,1182 -271.1,172.2 -599.7,186.3 -925.1,39.6 -236.9,-106.8 -456.9,-293.8 -603.7,-513.1 -303.9,-453.9 -224.4,-853 -160.6,-1173.6 15.7,-79 30.6,-153.6 41.1,-230.6 18.7,-136.8 -21,-268.6 -108.9,-361.8 -83.3,-88.4 -200.4,-131.6 -329.9,-121.6 -135.3,10.5 -171.8,55.4 -185.6,72.3 -36.9,45.3 -116.6,198.1 -60.3,636.8 32.9,256.6 101.5,790.6 93.4,1341.7 -10.9,754.4 -159.6,1276 -454.5,1594.6 -217.1,234.7 -507.7,349.9 -840.6,333.2 -306.9,-15.7 -514.23,-199.5 -665.62,-333.7 -45.61,-40.4 -112.22,-99.5 -147.71,-118.5 -8.16,3.4 -21.41,10.1 -40.06,22.3 -124.26,81.6 -176.13,370.4 -204.01,525.5 -36.28,202 -69.93,409 -102.46,609.1 -139.89,860.6 -284.54,1750.5 -687.16,2575.6 -411.31,842.9 -628.72,1844.7 -628.72,2897.1 0,3842 3125.64,6967.6 6967.64,6967.6 3842,0 6967.7,-3125.6 6967.7,-6967.6 0,-1236 -327.7,-2450 -947.7,-3510.8 z m 1137.1,6534.4 c -391.3,925 -951.3,1755.7 -1664.5,2468.9 -713.3,713.3 -1543.9,1273.3 -2468.9,1664.5 -957.9,405.2 -1975.2,610.6 -3023.7,610.6 -1048.4,0 -2065.7,-205.4 -3023.6,-610.6 -925,-391.2 -1755.71,-951.2 -2468.94,-1664.5 -713.25,-713.2 -1273.26,-1543.9 -1664.51,-2468.9 -405.16,-957.9 -610.59,-1975.2 -610.59,-3023.6 0,-1173.3 245.42,-2296.4 709.75,-3247.9 350.88,-719.1 479.9,-1512.8 616.49,-2353.1 33.06,-203.4 67.25,-413.7 104.71,-622.2 49.11,-273.5 140.54,-782.4 552.23,-1052.8 301.73,-198.1 562.6,-172 728.3,-115.1 182.67,62.7 319.45,184 429.36,281.4 49.9,44.2 142.6,126.4 176.2,133.4 118.1,5.6 171.7,-33.9 212.1,-77.6 69.1,-74.7 231.1,-327.9 241.8,-1062.9 7.2,-494.2 -56.4,-990 -87,-1228.2 -71.4,-556.2 4.9,-963 233.3,-1243.6 121.8,-149.7 349.9,-334.5 744.6,-365 369.8,-28.6 724.6,106.4 973.5,370.3 254.6,270 371,641.4 319.4,1019 -13.8,101.1 -32.5,195.3 -49.1,278.5 -58.3,292.9 -72.7,402.9 40.8,572.4 106.5,159.2 336.7,305.8 435.2,243.2 0.6,-0.4 63.6,-63.8 22,-411.6 -7,-57.9 -32.8,-162.7 -57.8,-264.1 -103.6,-420.8 -245.6,-997.2 93.1,-1357 235,-249.7 528.1,-217 685.6,-199.4 23.8,2.6 56.8,6.3 78.1,7.2 116.7,-86.6 212.2,-394.6 208.5,-684.4 -4.5,-346.4 -119.9,-697.9 -242,-1070 -12.9,-39.3 -25.8,-78.6 -38.5,-117.8 -143.8,-442.5 -291.4,-959.4 -221.1,-1494.1 52.7,-401.4 240.4,-790.2 528.5,-1094.6 297.5,-314.3 682.6,-516.8 1084.2,-570 68.2,-9 137.1,-13.5 206.4,-13.5 348.4,0 705.2,112.5 1004.4,320.9 374.1,260.4 619.4,633.1 690.7,1049.5 91.1,531.9 -95.2,1031 -244.9,1432.1 -126.7,339.6 -354.6,1224.8 -464.4,2129.7 -136.9,1128.4 -20.5,1716.8 134,1891.2 36.9,41.7 79.4,55 201.3,85.3 175.7,43.8 441.2,109.8 647.8,392.3 0.9,1.2 1.8,2.4 2.6,3.6 30.6,42.8 57.9,88.1 82.7,133.9 40.3,-244.2 0.8,-553.5 -37.7,-855.5 -36.5,-286.1 -74.2,-581.9 -49.2,-854.7 50.5,-550.4 394.9,-1039.7 877.4,-1246.4 439.1,-188.1 916.2,-117.6 1309,193.5 401.3,317.8 592.6,792.1 553.1,1371.6 -32.8,482.3 -219.9,953.3 -371.1,1263.5 -383.9,787.9 -336.6,1637 153.3,2753.2 154.6,352.4 391.1,632.5 641.6,929.2 212,251.1 431.2,510.8 619,832.1 691.6,1183.2 1057.1,2536.8 1057.1,3914.5 0,1048.4 -205.4,2065.7 -610.6,3023.6"
       style="fill:#292a2c;fill-opacity:1;fill-rule:nonzero;stroke:none"
       transform="matrix(0.13333333,0,0,-0.13333333,0,4000)" />
    <path
       id="path6"
       d="m 18991,16739.1 v 0 c -154.6,0 -294.9,-92.3 -354.3,-235 -652,-1566.9 -2199.1,-2671.3 -3999.3,-2671.3 -1800.2,0 -3347.2,1104.4 -3999.3,2671.3 -59.4,142.7 -199.6,235 -354.2,235 v 0 c -274.4,0 -460.24,-279.1 -354.88,-532.5 3.96,-9.5 7.95,-19 11.97,-28.5 256.71,-607 624.21,-1152.1 1092.21,-1620.1 468,-468 1013.1,-835.4 1620.1,-1092.2 628.6,-265.9 1296.2,-400.7 1984.1,-400.7 688,0 1355.5,134.8 1984.2,400.7 607,256.8 1152.1,624.2 1620,1092.2 468,468 835.5,1013.1 1092.3,1620.1 4,9.5 8,19 11.9,28.5 105.4,253.4 -80.4,532.5 -354.8,532.5"
       style="fill:#292a2c;fill-opacity:1;fill-rule:nonzero;stroke:none"
       transform="matrix(0.13333333,0,0,-0.13333333,0,4000)" />
    <path
       id="path7"
       d="m 12074.2,17128.7 c 230.7,-374 536.2,-429.8 697.7,-429.8 161.6,0 467.1,55.8 697.7,429.7 89.8,145.6 162.6,328.2 222.7,558.3 103.3,395.9 160.1,912.3 160.1,1453.9 0,541.6 -56.8,1058 -160.1,1453.9 -60.1,230.1 -132.9,412.7 -222.7,558.2 -230.6,374 -536.1,429.8 -697.7,429.8 -161.5,0 -467,-55.8 -697.7,-429.8 -89.8,-145.5 -162.6,-328.1 -222.6,-558.2 -103.3,-395.9 -160.2,-912.3 -160.2,-1453.9 0,-541.6 56.9,-1058 160.2,-1453.9 60,-230.1 132.8,-412.7 222.6,-558.2"
       style="fill:#292a2c;fill-opacity:1;fill-rule:nonzero;stroke:none"
       transform="matrix(0.13333333,0,0,-0.13333333,0,4000)" />
    <path
       id="path8"
       d="m 15805.2,17128.7 c 230.6,-374 536.1,-429.8 697.7,-429.8 161.6,0 467.1,55.8 697.7,429.8 89.8,145.5 162.6,328.1 222.6,558.2 103.3,395.9 160.2,912.3 160.2,1453.9 0,541.6 -56.9,1058 -160.2,1453.9 -60,230.1 -132.8,412.7 -222.6,558.2 -230.6,374 -536.1,429.8 -697.7,429.8 -161.6,0 -467.1,-55.8 -697.7,-429.8 -89.8,-145.5 -162.6,-328.1 -222.6,-558.2 -103.3,-395.9 -160.2,-912.3 -160.2,-1453.9 0,-541.6 56.9,-1058 160.2,-1453.9 60,-230.1 132.8,-412.7 222.6,-558.2"
       style="fill:#292a2c;fill-opacity:1;fill-rule:nonzero;stroke:none"
       transform="matrix(0.13333333,0,0,-0.13333333,0,4000)" />
    <path
       id="path9"
       d="m 9742.17,5166.6 c -19.62,-128.3 -65.45,-235.7 -122.57,-287.2 -3.51,-3.2 -9.51,-6.3 -16.9,-8.7 -44.42,-14.5 -73.62,-17.8 -87.89,-17.8 -0.13,0 -0.28,0 -0.41,0 -25.43,35.2 -86.45,181.5 -69.14,503.1 13.22,245.5 68.68,524.9 152.98,772.6 120.38,-331.3 183.36,-704.1 143.93,-962 z m -345.51,2093.8 c -395.92,-262.2 -592.61,-951.7 -658.8,-1236 -66.51,-285.7 -195.54,-1003.2 42.33,-1495.1 95.95,-198.3 243.92,-342.8 427.93,-417.9 95.96,-39.1 198.32,-58.7 306.36,-58.7 106.98,0 219.53,19.2 336.87,57.6 114.69,37.5 217.15,96.5 304.35,175.3 198.1,178.9 328.6,441.7 377.3,760 v 0.1 c 99.1,648.1 -172.8,1605.7 -606.05,2134.6 -130.05,158.8 -359.16,193.4 -530.29,80.1"
       style="fill:#292a2c;fill-opacity:1;fill-rule:nonzero;stroke:none"
       transform="matrix(0.13333333,0,0,-0.13333333,0,4000)" />
  </g>
</svg>
